<?xml version="1.0" encoding="UTF-8"?><!-- Created with Inkscape (http://www.inkscape.org/) --><svg xmlns="http://www.w3.org/2000/svg" xmlns:inkscape="http://www.inkscape.org/namespaces/inkscape" xmlns:sodipodi="http://sodipodi.sourceforge.net/DTD/sodipodi-0.dtd" xmlns:cc="http://creativecommons.org/ns#" xmlns:dc="http://purl.org/dc/elements/1.1/" xmlns:rdf="http://www.w3.org/1999/02/22-rdf-syntax-ns#" xmlns:svg="http://www.w3.org/2000/svg" height="169.40309" id="svg2" inkscape:version="0.48.3.1 r9886" sodipodi:docname="MainNP1.svg" version="1.1" viewBox="0 0 407.40012 169.40309" width="407.40012">
  <sodipodi:namedview bordercolor="#666666" borderopacity="1" fit-margin-bottom="0" fit-margin-left="0" fit-margin-right="0" fit-margin-top="0" gridtolerance="10" guidetolerance="10" id="namedview26" inkscape:current-layer="svg2" inkscape:cx="280.37085" inkscape:cy="-55.056739" inkscape:pageopacity="0" inkscape:pageshadow="2" inkscape:snap-grids="true" inkscape:window-height="871" inkscape:window-maximized="0" inkscape:window-width="1041" inkscape:window-x="786" inkscape:window-y="82" inkscape:zoom="0.89571167" objecttolerance="10" pagecolor="#ffffff" showgrid="true">
    <inkscape:grid empspacing="5" enabled="true" id="grid3002" originx="261.00016px" originy="341.01562px" snapvisiblegridlinesonly="true" type="xygrid" visible="true"/>
  </sodipodi:namedview>
  <defs id="defs4">
    <marker id="Arrow1Mend" orient="auto" refX="0" refY="0" style="overflow:visible">
      <path d="M 0,0 5,-5 -12.5,0 5,5 0,0 z" id="path3776" inkscape:connector-curvature="0" style="fill-rule:evenodd;stroke:#000000;stroke-width:1pt" transform="matrix(-0.4,0,0,-0.4,-4,0)"/>
    </marker>
    <marker id="Arrow2Lend" orient="auto" refX="0" refY="0" style="overflow:visible">
      <path d="M 8.7185878,4.0337352 -2.2072895,0.01601326 8.7185884,-4.0017078 c -1.7454984,2.3720609 -1.7354408,5.6174519 -6e-7,8.035443 z" id="path3788" inkscape:connector-curvature="0" style="fill-rule:evenodd;stroke-width:0.625;stroke-linejoin:round" transform="matrix(-1.1,0,0,-1.1,-1.1,0)"/>
    </marker>
    <marker id="Arrow1Mend-6" orient="auto" refX="0" refY="0" style="overflow:visible">
      <path d="M 0,0 5,-5 -12.5,0 5,5 0,0 z" id="path3776-7" inkscape:connector-curvature="0" style="fill-rule:evenodd;stroke:#000000;stroke-width:1pt" transform="matrix(-0.4,0,0,-0.4,-4,0)"/>
    </marker>
    <marker id="Arrow1Mend-0" orient="auto" refX="0" refY="0" style="overflow:visible">
      <path d="M 0,0 5,-5 -12.5,0 5,5 0,0 z" id="path3776-76" inkscape:connector-curvature="0" style="fill-rule:evenodd;stroke:#000000;stroke-width:1pt" transform="matrix(-0.4,0,0,-0.4,-4,0)"/>
    </marker>
    <marker id="Arrow1Mend-3" orient="auto" refX="0" refY="0" style="overflow:visible">
      <path d="M 0,0 5,-5 -12.5,0 5,5 0,0 z" id="path3776-8" inkscape:connector-curvature="0" style="fill-rule:evenodd;stroke:#000000;stroke-width:1pt" transform="matrix(-0.4,0,0,-0.4,-4,0)"/>
    </marker>
    <marker id="Arrow1Mend-5" orient="auto" refX="0" refY="0" style="overflow:visible">
      <path d="M 0,0 5,-5 -12.5,0 5,5 0,0 z" id="path3776-9" inkscape:connector-curvature="0" style="fill-rule:evenodd;stroke:#000000;stroke-width:1pt" transform="matrix(-0.4,0,0,-0.4,-4,0)"/>
    </marker>
    <marker id="Arrow1Mend-36" orient="auto" refX="0" refY="0" style="overflow:visible">
      <path d="M 0,0 5,-5 -12.5,0 5,5 0,0 z" id="path3776-94" inkscape:connector-curvature="0" style="fill-rule:evenodd;stroke:#000000;stroke-width:1pt" transform="matrix(-0.4,0,0,-0.4,-4,0)"/>
    </marker>
    <marker id="Arrow1Mend-2" orient="auto" refX="0" refY="0" style="overflow:visible">
      <path d="M 0,0 5,-5 -12.5,0 5,5 0,0 z" id="path3776-4" inkscape:connector-curvature="0" style="fill-rule:evenodd;stroke:#000000;stroke-width:1pt" transform="matrix(-0.4,0,0,-0.4,-4,0)"/>
    </marker>
    <marker id="Arrow1Mend-8" orient="auto" refX="0" refY="0" style="overflow:visible">
      <path d="M 0,0 5,-5 -12.5,0 5,5 0,0 z" id="path3776-2" inkscape:connector-curvature="0" style="fill-rule:evenodd;stroke:#000000;stroke-width:1pt" transform="matrix(-0.4,0,0,-0.4,-4,0)"/>
    </marker>
    <marker id="Arrow1Mend-59" orient="auto" refX="0" refY="0" style="overflow:visible">
      <path d="M 0,0 5,-5 -12.5,0 5,5 0,0 z" id="path3776-5" inkscape:connector-curvature="0" style="fill-rule:evenodd;stroke:#000000;stroke-width:1pt" transform="matrix(-0.4,0,0,-0.4,-4,0)"/>
    </marker>
    <marker id="Arrow1Mend-69" orient="auto" refX="0" refY="0" style="overflow:visible">
      <path d="M 0,0 5,-5 -12.5,0 5,5 0,0 z" id="path3776-3" inkscape:connector-curvature="0" style="fill-rule:evenodd;stroke:#000000;stroke-width:1pt" transform="matrix(-0.4,0,0,-0.4,-4,0)"/>
    </marker>
    <marker id="Arrow1Mend-39" orient="auto" refX="0" refY="0" style="overflow:visible">
      <path d="M 0,0 5,-5 -12.5,0 5,5 0,0 z" id="path3776-0" inkscape:connector-curvature="0" style="fill-rule:evenodd;stroke:#000000;stroke-width:1pt" transform="matrix(-0.4,0,0,-0.4,-4,0)"/>
    </marker>
    <marker id="Arrow1Mend-392" orient="auto" refX="0" refY="0" style="overflow:visible">
      <path d="M 0,0 5,-5 -12.5,0 5,5 0,0 z" id="path3776-25" inkscape:connector-curvature="0" style="fill-rule:evenodd;stroke:#000000;stroke-width:1pt" transform="matrix(-0.4,0,0,-0.4,-4,0)"/>
    </marker>
    <marker id="marker3389" orient="auto" refX="0" refY="0" style="overflow:visible">
      <path d="M 0,0 5,-5 -12.5,0 5,5 0,0 z" id="path3391" inkscape:connector-curvature="0" style="fill-rule:evenodd;stroke:#000000;stroke-width:1pt" transform="matrix(-0.4,0,0,-0.4,-4,0)"/>
    </marker>
    <marker id="marker3393" orient="auto" refX="0" refY="0" style="overflow:visible">
      <path d="M 0,0 5,-5 -12.5,0 5,5 0,0 z" id="path3395" inkscape:connector-curvature="0" style="fill-rule:evenodd;stroke:#000000;stroke-width:1pt" transform="matrix(-0.4,0,0,-0.4,-4,0)"/>
    </marker>
    <marker id="marker3397" orient="auto" refX="0" refY="0" style="overflow:visible">
      <path d="M 0,0 5,-5 -12.5,0 5,5 0,0 z" id="path3399" inkscape:connector-curvature="0" style="fill-rule:evenodd;stroke:#000000;stroke-width:1pt" transform="matrix(-0.4,0,0,-0.4,-4,0)"/>
    </marker>
    <marker id="marker3401" orient="auto" refX="0" refY="0" style="overflow:visible">
      <path d="M 0,0 5,-5 -12.5,0 5,5 0,0 z" id="path3403" inkscape:connector-curvature="0" style="fill-rule:evenodd;stroke:#000000;stroke-width:1pt" transform="matrix(-0.4,0,0,-0.4,-4,0)"/>
    </marker>
    <marker id="Arrow1Mend-9" orient="auto" refX="0" refY="0" style="overflow:visible">
      <path d="M 0,0 5,-5 -12.5,0 5,5 0,0 z" id="path3776-1" inkscape:connector-curvature="0" style="fill-rule:evenodd;stroke:#000000;stroke-width:1pt" transform="matrix(-0.4,0,0,-0.4,-4,0)"/>
    </marker>
    <marker id="Arrow1Mend-1" orient="auto" refX="0" refY="0" style="overflow:visible">
      <path d="M 0,0 5,-5 -12.5,0 5,5 0,0 z" id="path3776-15" inkscape:connector-curvature="0" style="fill-rule:evenodd;stroke:#000000;stroke-width:1pt" transform="matrix(-0.4,0,0,-0.4,-4,0)"/>
    </marker>
    <marker id="marker3623" orient="auto" refX="0" refY="0" style="overflow:visible">
      <path d="M 0,0 5,-5 -12.5,0 5,5 0,0 z" id="path3625" inkscape:connector-curvature="0" style="fill-rule:evenodd;stroke:#000000;stroke-width:1pt" transform="matrix(-0.4,0,0,-0.4,-4,0)"/>
    </marker>
    <marker id="marker3627" orient="auto" refX="0" refY="0" style="overflow:visible">
      <path d="M 0,0 5,-5 -12.5,0 5,5 0,0 z" id="path3629" inkscape:connector-curvature="0" style="fill-rule:evenodd;stroke:#000000;stroke-width:1pt" transform="matrix(-0.4,0,0,-0.4,-4,0)"/>
    </marker>
    <marker id="marker3631" orient="auto" refX="0" refY="0" style="overflow:visible">
      <path d="M 0,0 5,-5 -12.5,0 5,5 0,0 z" id="path3633" inkscape:connector-curvature="0" style="fill-rule:evenodd;stroke:#000000;stroke-width:1pt" transform="matrix(-0.4,0,0,-0.4,-4,0)"/>
    </marker>
    <marker id="marker3635" orient="auto" refX="0" refY="0" style="overflow:visible">
      <path d="M 0,0 5,-5 -12.5,0 5,5 0,0 z" id="path3637" inkscape:connector-curvature="0" style="fill-rule:evenodd;stroke:#000000;stroke-width:1pt" transform="matrix(-0.4,0,0,-0.4,-4,0)"/>
    </marker>
    <marker id="Arrow1Mend-08" orient="auto" refX="0" refY="0" style="overflow:visible">
      <path d="M 0,0 5,-5 -12.5,0 5,5 0,0 z" id="path3776-12" inkscape:connector-curvature="0" style="fill-rule:evenodd;stroke:#000000;stroke-width:1pt" transform="matrix(-0.4,0,0,-0.4,-4,0)"/>
    </marker>
    <marker id="marker3623-2" orient="auto" refX="0" refY="0" style="overflow:visible">
      <path d="M 0,0 5,-5 -12.5,0 5,5 0,0 z" id="path3625-2" inkscape:connector-curvature="0" style="fill-rule:evenodd;stroke:#000000;stroke-width:1pt" transform="matrix(-0.4,0,0,-0.4,-4,0)"/>
    </marker>
    <marker id="marker3627-4" orient="auto" refX="0" refY="0" style="overflow:visible">
      <path d="M 0,0 5,-5 -12.5,0 5,5 0,0 z" id="path3629-9" inkscape:connector-curvature="0" style="fill-rule:evenodd;stroke:#000000;stroke-width:1pt" transform="matrix(-0.4,0,0,-0.4,-4,0)"/>
    </marker>
    <marker id="marker3631-2" orient="auto" refX="0" refY="0" style="overflow:visible">
      <path d="M 0,0 5,-5 -12.5,0 5,5 0,0 z" id="path3633-8" inkscape:connector-curvature="0" style="fill-rule:evenodd;stroke:#000000;stroke-width:1pt" transform="matrix(-0.4,0,0,-0.4,-4,0)"/>
    </marker>
    <marker id="marker3635-4" orient="auto" refX="0" refY="0" style="overflow:visible">
      <path d="M 0,0 5,-5 -12.5,0 5,5 0,0 z" id="path3637-3" inkscape:connector-curvature="0" style="fill-rule:evenodd;stroke:#000000;stroke-width:1pt" transform="matrix(-0.4,0,0,-0.4,-4,0)"/>
    </marker>
    <marker id="Arrow1Mend-82" orient="auto" refX="0" refY="0" style="overflow:visible">
      <path d="M 0,0 5,-5 -12.5,0 5,5 0,0 z" id="path3776-22" inkscape:connector-curvature="0" style="fill-rule:evenodd;stroke:#000000;stroke-width:1pt" transform="matrix(-0.4,0,0,-0.4,-4,0)"/>
    </marker>
    <marker id="marker3623-26" orient="auto" refX="0" refY="0" style="overflow:visible">
      <path d="M 0,0 5,-5 -12.5,0 5,5 0,0 z" id="path3625-6" inkscape:connector-curvature="0" style="fill-rule:evenodd;stroke:#000000;stroke-width:1pt" transform="matrix(-0.4,0,0,-0.4,-4,0)"/>
    </marker>
    <marker id="marker3627-5" orient="auto" refX="0" refY="0" style="overflow:visible">
      <path d="M 0,0 5,-5 -12.5,0 5,5 0,0 z" id="path3629-7" inkscape:connector-curvature="0" style="fill-rule:evenodd;stroke:#000000;stroke-width:1pt" transform="matrix(-0.4,0,0,-0.4,-4,0)"/>
    </marker>
    <marker id="marker3631-5" orient="auto" refX="0" refY="0" style="overflow:visible">
      <path d="M 0,0 5,-5 -12.5,0 5,5 0,0 z" id="path3633-7" inkscape:connector-curvature="0" style="fill-rule:evenodd;stroke:#000000;stroke-width:1pt" transform="matrix(-0.4,0,0,-0.4,-4,0)"/>
    </marker>
    <marker id="marker3635-7" orient="auto" refX="0" refY="0" style="overflow:visible">
      <path d="M 0,0 5,-5 -12.5,0 5,5 0,0 z" id="path3637-0" inkscape:connector-curvature="0" style="fill-rule:evenodd;stroke:#000000;stroke-width:1pt" transform="matrix(-0.4,0,0,-0.4,-4,0)"/>
    </marker>
    <marker id="Arrow1Mend-68" orient="auto" refX="0" refY="0" style="overflow:visible">
      <path d="M 0,0 5,-5 -12.5,0 5,5 0,0 z" id="path3776-82" inkscape:connector-curvature="0" style="fill-rule:evenodd;stroke:#000000;stroke-width:1pt" transform="matrix(-0.4,0,0,-0.4,-4,0)"/>
    </marker>
    <marker id="marker4891" orient="auto" refX="0" refY="0" style="overflow:visible">
      <path d="M 0,0 5,-5 -12.5,0 5,5 0,0 z" id="path4893" inkscape:connector-curvature="0" style="fill-rule:evenodd;stroke:#000000;stroke-width:1pt" transform="matrix(-0.4,0,0,-0.4,-4,0)"/>
    </marker>
    <marker id="marker4895" orient="auto" refX="0" refY="0" style="overflow:visible">
      <path d="M 0,0 5,-5 -12.5,0 5,5 0,0 z" id="path4897" inkscape:connector-curvature="0" style="fill-rule:evenodd;stroke:#000000;stroke-width:1pt" transform="matrix(-0.4,0,0,-0.4,-4,0)"/>
    </marker>
    <marker id="marker4899" orient="auto" refX="0" refY="0" style="overflow:visible">
      <path d="M 0,0 5,-5 -12.5,0 5,5 0,0 z" id="path4901" inkscape:connector-curvature="0" style="fill-rule:evenodd;stroke:#000000;stroke-width:1pt" transform="matrix(-0.4,0,0,-0.4,-4,0)"/>
    </marker>
    <marker id="marker4903" orient="auto" refX="0" refY="0" style="overflow:visible">
      <path d="M 0,0 5,-5 -12.5,0 5,5 0,0 z" id="path4905" inkscape:connector-curvature="0" style="fill-rule:evenodd;stroke:#000000;stroke-width:1pt" transform="matrix(-0.4,0,0,-0.4,-4,0)"/>
    </marker>
    <marker id="Arrow1Mend-16" orient="auto" refX="0" refY="0" style="overflow:visible">
      <path d="M 0,0 5,-5 -12.5,0 5,5 0,0 z" id="path3776-58" inkscape:connector-curvature="0" style="fill-rule:evenodd;stroke:#000000;stroke-width:1pt" transform="matrix(-0.4,0,0,-0.4,-4,0)"/>
    </marker>
    <marker id="marker4995" orient="auto" refX="0" refY="0" style="overflow:visible">
      <path d="M 0,0 5,-5 -12.5,0 5,5 0,0 z" id="path4997" inkscape:connector-curvature="0" style="fill-rule:evenodd;stroke:#000000;stroke-width:1pt" transform="matrix(-0.4,0,0,-0.4,-4,0)"/>
    </marker>
    <marker id="marker4999" orient="auto" refX="0" refY="0" style="overflow:visible">
      <path d="M 0,0 5,-5 -12.5,0 5,5 0,0 z" id="path5001" inkscape:connector-curvature="0" style="fill-rule:evenodd;stroke:#000000;stroke-width:1pt" transform="matrix(-0.4,0,0,-0.4,-4,0)"/>
    </marker>
    <marker id="marker5003" orient="auto" refX="0" refY="0" style="overflow:visible">
      <path d="M 0,0 5,-5 -12.5,0 5,5 0,0 z" id="path5005" inkscape:connector-curvature="0" style="fill-rule:evenodd;stroke:#000000;stroke-width:1pt" transform="matrix(-0.4,0,0,-0.4,-4,0)"/>
    </marker>
    <marker id="marker5007" orient="auto" refX="0" refY="0" style="overflow:visible">
      <path d="M 0,0 5,-5 -12.5,0 5,5 0,0 z" id="path5009" inkscape:connector-curvature="0" style="fill-rule:evenodd;stroke:#000000;stroke-width:1pt" transform="matrix(-0.4,0,0,-0.4,-4,0)"/>
    </marker>
    <marker id="marker5011" orient="auto" refX="0" refY="0" style="overflow:visible">
      <path d="M 0,0 5,-5 -12.5,0 5,5 0,0 z" id="path5013" inkscape:connector-curvature="0" style="fill-rule:evenodd;stroke:#000000;stroke-width:1pt" transform="matrix(-0.4,0,0,-0.4,-4,0)"/>
    </marker>
    <marker id="marker5015" orient="auto" refX="0" refY="0" style="overflow:visible">
      <path d="M 0,0 5,-5 -12.5,0 5,5 0,0 z" id="path5017" inkscape:connector-curvature="0" style="fill-rule:evenodd;stroke:#000000;stroke-width:1pt" transform="matrix(-0.4,0,0,-0.4,-4,0)"/>
    </marker>
    <marker id="marker5019" orient="auto" refX="0" refY="0" style="overflow:visible">
      <path d="M 0,0 5,-5 -12.5,0 5,5 0,0 z" id="path5021" inkscape:connector-curvature="0" style="fill-rule:evenodd;stroke:#000000;stroke-width:1pt" transform="matrix(-0.4,0,0,-0.4,-4,0)"/>
    </marker>
    <marker id="marker5023" orient="auto" refX="0" refY="0" style="overflow:visible">
      <path d="M 0,0 5,-5 -12.5,0 5,5 0,0 z" id="path5025" inkscape:connector-curvature="0" style="fill-rule:evenodd;stroke:#000000;stroke-width:1pt" transform="matrix(-0.4,0,0,-0.4,-4,0)"/>
    </marker>
    <marker id="marker5027" orient="auto" refX="0" refY="0" style="overflow:visible">
      <path d="M 0,0 5,-5 -12.5,0 5,5 0,0 z" id="path5029" inkscape:connector-curvature="0" style="fill-rule:evenodd;stroke:#000000;stroke-width:1pt" transform="matrix(-0.4,0,0,-0.4,-4,0)"/>
    </marker>
    <marker id="marker5031" orient="auto" refX="0" refY="0" style="overflow:visible">
      <path d="M 0,0 5,-5 -12.5,0 5,5 0,0 z" id="path5033" inkscape:connector-curvature="0" style="fill-rule:evenodd;stroke:#000000;stroke-width:1pt" transform="matrix(-0.4,0,0,-0.4,-4,0)"/>
    </marker>
    <marker id="marker5035" orient="auto" refX="0" refY="0" style="overflow:visible">
      <path d="M 0,0 5,-5 -12.5,0 5,5 0,0 z" id="path5037" inkscape:connector-curvature="0" style="fill-rule:evenodd;stroke:#000000;stroke-width:1pt" transform="matrix(-0.4,0,0,-0.4,-4,0)"/>
    </marker>
    <marker id="marker5039" orient="auto" refX="0" refY="0" style="overflow:visible">
      <path d="M 0,0 5,-5 -12.5,0 5,5 0,0 z" id="path5041" inkscape:connector-curvature="0" style="fill-rule:evenodd;stroke:#000000;stroke-width:1pt" transform="matrix(-0.4,0,0,-0.4,-4,0)"/>
    </marker>
    <marker id="marker5043" orient="auto" refX="0" refY="0" style="overflow:visible">
      <path d="M 0,0 5,-5 -12.5,0 5,5 0,0 z" id="path5045" inkscape:connector-curvature="0" style="fill-rule:evenodd;stroke:#000000;stroke-width:1pt" transform="matrix(-0.4,0,0,-0.4,-4,0)"/>
    </marker>
    <marker id="marker5047" orient="auto" refX="0" refY="0" style="overflow:visible">
      <path d="M 0,0 5,-5 -12.5,0 5,5 0,0 z" id="path5049" inkscape:connector-curvature="0" style="fill-rule:evenodd;stroke:#000000;stroke-width:1pt" transform="matrix(-0.4,0,0,-0.4,-4,0)"/>
    </marker>
    <marker id="marker5051" orient="auto" refX="0" refY="0" style="overflow:visible">
      <path d="M 0,0 5,-5 -12.5,0 5,5 0,0 z" id="path5053" inkscape:connector-curvature="0" style="fill-rule:evenodd;stroke:#000000;stroke-width:1pt" transform="matrix(-0.4,0,0,-0.4,-4,0)"/>
    </marker>
    <marker id="marker5055" orient="auto" refX="0" refY="0" style="overflow:visible">
      <path d="M 0,0 5,-5 -12.5,0 5,5 0,0 z" id="path5057" inkscape:connector-curvature="0" style="fill-rule:evenodd;stroke:#000000;stroke-width:1pt" transform="matrix(-0.4,0,0,-0.4,-4,0)"/>
    </marker>
    <marker id="marker5059" orient="auto" refX="0" refY="0" style="overflow:visible">
      <path d="M 0,0 5,-5 -12.5,0 5,5 0,0 z" id="path5061" inkscape:connector-curvature="0" style="fill-rule:evenodd;stroke:#000000;stroke-width:1pt" transform="matrix(-0.4,0,0,-0.4,-4,0)"/>
    </marker>
    <marker id="marker5063" orient="auto" refX="0" refY="0" style="overflow:visible">
      <path d="M 0,0 5,-5 -12.5,0 5,5 0,0 z" id="path5065" inkscape:connector-curvature="0" style="fill-rule:evenodd;stroke:#000000;stroke-width:1pt" transform="matrix(-0.4,0,0,-0.4,-4,0)"/>
    </marker>
    <marker id="marker5067" orient="auto" refX="0" refY="0" style="overflow:visible">
      <path d="M 0,0 5,-5 -12.5,0 5,5 0,0 z" id="path5069" inkscape:connector-curvature="0" style="fill-rule:evenodd;stroke:#000000;stroke-width:1pt" transform="matrix(-0.4,0,0,-0.4,-4,0)"/>
    </marker>
    <marker id="Arrow1Mend-54" orient="auto" refX="0" refY="0" style="overflow:visible">
      <path d="M 0,0 5,-5 -12.5,0 5,5 0,0 z" id="path3776-41" inkscape:connector-curvature="0" style="fill-rule:evenodd;stroke:#000000;stroke-width:1pt" transform="matrix(-0.4,0,0,-0.4,-4,0)"/>
    </marker>
    <marker id="marker5405" orient="auto" refX="0" refY="0" style="overflow:visible">
      <path d="M 0,0 5,-5 -12.5,0 5,5 0,0 z" id="path5407" inkscape:connector-curvature="0" style="fill-rule:evenodd;stroke:#000000;stroke-width:1pt" transform="matrix(-0.4,0,0,-0.4,-4,0)"/>
    </marker>
    <marker id="marker5409" orient="auto" refX="0" refY="0" style="overflow:visible">
      <path d="M 0,0 5,-5 -12.5,0 5,5 0,0 z" id="path5411" inkscape:connector-curvature="0" style="fill-rule:evenodd;stroke:#000000;stroke-width:1pt" transform="matrix(-0.4,0,0,-0.4,-4,0)"/>
    </marker>
    <marker id="Arrow1Mend-04" orient="auto" refX="0" refY="0" style="overflow:visible">
      <path d="M 0,0 5,-5 -12.5,0 5,5 0,0 z" id="path3776-45" inkscape:connector-curvature="0" style="fill-rule:evenodd;stroke:#000000;stroke-width:1pt" transform="matrix(-0.4,0,0,-0.4,-4,0)"/>
    </marker>
    <marker id="Arrow1Mend-17" orient="auto" refX="0" refY="0" style="overflow:visible">
      <path d="M 0,0 5,-5 -12.5,0 5,5 0,0 z" id="path3776-73" inkscape:connector-curvature="0" style="fill-rule:evenodd;stroke:#000000;stroke-width:1pt" transform="matrix(-0.4,0,0,-0.4,-4,0)"/>
    </marker>
    <marker id="Arrow1Mend-50" orient="auto" refX="0" refY="0" style="overflow:visible">
      <path d="M 0,0 5,-5 -12.5,0 5,5 0,0 z" id="path3776-152" inkscape:connector-curvature="0" style="fill-rule:evenodd;stroke:#000000;stroke-width:1pt" transform="matrix(-0.4,0,0,-0.4,-4,0)"/>
    </marker>
    <marker id="Arrow1Mend-7" orient="auto" refX="0" refY="0" style="overflow:visible">
      <path d="M 0,0 5,-5 -12.5,0 5,5 0,0 z" id="path3776-46" inkscape:connector-curvature="0" style="fill-rule:evenodd;stroke:#000000;stroke-width:1pt" transform="matrix(-0.4,0,0,-0.4,-4,0)"/>
    </marker>
    <marker id="marker3392" orient="auto" refX="0" refY="0" style="overflow:visible">
      <path d="M 0,0 5,-5 -12.5,0 5,5 0,0 z" id="path3394" inkscape:connector-curvature="0" style="fill-rule:evenodd;stroke:#000000;stroke-width:1pt" transform="matrix(-0.4,0,0,-0.4,-4,0)"/>
    </marker>
    <marker id="marker3396" orient="auto" refX="0" refY="0" style="overflow:visible">
      <path d="M 0,0 5,-5 -12.5,0 5,5 0,0 z" id="path3398" inkscape:connector-curvature="0" style="fill-rule:evenodd;stroke:#000000;stroke-width:1pt" transform="matrix(-0.4,0,0,-0.4,-4,0)"/>
    </marker>
    <marker id="Arrow1Mend-94" orient="auto" refX="0" refY="0" style="overflow:visible">
      <path d="M 0,0 5,-5 -12.5,0 5,5 0,0 z" id="path3776-59" inkscape:connector-curvature="0" style="fill-rule:evenodd;stroke:#000000;stroke-width:1pt" transform="matrix(-0.4,0,0,-0.4,-4,0)"/>
    </marker>
    <marker id="marker3392-9" orient="auto" refX="0" refY="0" style="overflow:visible">
      <path d="M 0,0 5,-5 -12.5,0 5,5 0,0 z" id="path3394-6" inkscape:connector-curvature="0" style="fill-rule:evenodd;stroke:#000000;stroke-width:1pt" transform="matrix(-0.4,0,0,-0.4,-4,0)"/>
    </marker>
    <marker id="marker3396-4" orient="auto" refX="0" refY="0" style="overflow:visible">
      <path d="M 0,0 5,-5 -12.5,0 5,5 0,0 z" id="path3398-6" inkscape:connector-curvature="0" style="fill-rule:evenodd;stroke:#000000;stroke-width:1pt" transform="matrix(-0.4,0,0,-0.4,-4,0)"/>
    </marker>
  </defs>
  <metadata id="metadata7">
    <rdf:RDF id="ID_PubliTool_N10458">
      <cc:Work id="ID_PubliTool_N1045A" rdf:about="">
        <dc:format id="ID_PubliTool_N1045D">image/svg+xml</dc:format>
        <dc:type id="ID_PubliTool_N10460" rdf:resource="http://purl.org/dc/dcmitype/StillImage"/>
        <dc:title id="ID_PubliTool_N10463"/>
      </cc:Work>
    </rdf:RDF>
  </metadata>
  <g transform="scale(0.7)"><rect height="240" id="rect2987" style="fill:#d0f28c;fill-opacity:0.99610895;fill-rule:nonzero;stroke:#000000;stroke-width:2;stroke-linecap:square;stroke-linejoin:round;stroke-miterlimit:4;stroke-opacity:1;stroke-dasharray:none;stroke-dashoffset:0" width="580" x="1.0001553" y="0.98877877"/>
  <text id="text2989" sodipodi:linespacing="125%" style="font-size:16px;font-style:normal;font-variant:normal;font-weight:normal;font-stretch:normal;text-align:center;line-height:125%;letter-spacing:0px;word-spacing:0px;writing-mode:lr-tb;text-anchor:middle;fill:#000000;fill-opacity:1;stroke:none;font-family:Times New Roman;-inkscape-font-specification:Sans" x="301.00015" xml:space="preserve" y="230.98878"><tspan id="tspan2991" x="301.00015" y="230.98878">MainNP1</tspan></text>
  <text id="text4393-7-9-4" sodipodi:linespacing="125%" style="font-size:16px;font-style:normal;font-variant:normal;font-weight:normal;font-stretch:normal;text-align:end;line-height:125%;letter-spacing:0px;word-spacing:0px;writing-mode:lr-tb;text-anchor:end;fill:#000000;fill-opacity:1;stroke:none;font-family:Times New Roman;-inkscape-font-specification:Sans" x="905.00018" xml:space="preserve" y="488.98877"><tspan id="tspan4395-9-8-3" x="905.00018" y="488.98877"/></text>
  <rect height="140" id="rect2987-7-3-6-4" ry="0" style="fill:#aad400;fill-opacity:0.99610895;fill-rule:nonzero;stroke:#000000;stroke-width:2;stroke-linecap:square;stroke-linejoin:round;stroke-miterlimit:4;stroke-opacity:1;stroke-dasharray:none;stroke-dashoffset:0" width="140" x="11.000155" y="30.988779"/>
  <text id="text2989-9-3-7-4" sodipodi:linespacing="125%" style="font-size:16px;font-style:normal;font-variant:normal;font-weight:normal;font-stretch:normal;text-align:center;line-height:125%;letter-spacing:0px;word-spacing:0px;writing-mode:lr-tb;text-anchor:middle;fill:#000000;fill-opacity:1;stroke:none;font-family:Times New Roman;-inkscape-font-specification:Sans" x="41.000156" xml:space="preserve" y="830.98877"><tspan id="tspan2991-9-7-6-8" x="41.000156" y="830.98877"/></text>
  <text id="text3311" sodipodi:linespacing="125%" style="font-size:16px;font-style:normal;font-variant:normal;font-weight:normal;font-stretch:normal;text-align:center;line-height:125%;letter-spacing:0px;word-spacing:0px;writing-mode:lr-tb;text-anchor:middle;fill:#000000;fill-opacity:1;stroke:none;font-family:Times New Roman;-inkscape-font-specification:Sans" x="81.000153" xml:space="preserve" y="160.98878"><tspan id="tspan3313" x="81.000153" y="160.98878">DataGeneratorP1</tspan></text>
  <path d="m 151.00016,50.988774 50,0" id="path2993-1-9-23-3" inkscape:connector-curvature="0" sodipodi:nodetypes="cc" style="fill:none;stroke:#000000;stroke-width:2;stroke-linecap:butt;stroke-linejoin:miter;stroke-miterlimit:4;stroke-opacity:1;stroke-dasharray:none;marker-end:url(#Arrow1Mend)"/>
  <text id="text4393-7-9-2-7-8-2" sodipodi:linespacing="125%" style="font-size:16px;font-style:normal;font-variant:normal;font-weight:normal;font-stretch:normal;text-align:end;line-height:125%;letter-spacing:0px;word-spacing:0px;writing-mode:lr-tb;text-anchor:end;fill:#000000;fill-opacity:1;stroke:none;font-family:Times New Roman;-inkscape-font-specification:Sans" x="141.00015" xml:space="preserve" y="50.988777"><tspan id="tspan4395-9-8-4-2-9-3" x="141.00015" y="50.988777">kout</tspan></text>
  <text id="text4393-7-9-4-0" sodipodi:linespacing="125%" style="font-size:16px;font-style:normal;font-variant:normal;font-weight:normal;font-stretch:normal;text-align:end;line-height:125%;letter-spacing:0px;word-spacing:0px;writing-mode:lr-tb;text-anchor:end;fill:#000000;fill-opacity:1;stroke:none;font-family:Times New Roman;-inkscape-font-specification:Sans" x="897.00018" xml:space="preserve" y="482.98877"><tspan id="tspan4395-9-8-3-1" x="897.00018" y="482.98877"/></text>
  <path d="m 151.00016,90.988774 50,0" id="path2993-1-9-23-3-5" inkscape:connector-curvature="0" sodipodi:nodetypes="cc" style="fill:none;stroke:#000000;stroke-width:2;stroke-linecap:butt;stroke-linejoin:miter;stroke-miterlimit:4;stroke-opacity:1;stroke-dasharray:none;marker-end:url(#Arrow1Mend)"/>
  <path d="m 151.00016,130.98877 50,0" id="path2993-1-9-23-3-2" inkscape:connector-curvature="0" sodipodi:nodetypes="cc" style="fill:none;stroke:#000000;stroke-width:2;stroke-linecap:butt;stroke-linejoin:miter;stroke-miterlimit:4;stroke-opacity:1;stroke-dasharray:none;marker-end:url(#Arrow1Mend)"/>
  <text id="text4393-7-9-2-7-8-2-0" sodipodi:linespacing="125%" style="font-size:16px;font-style:normal;font-variant:normal;font-weight:normal;font-stretch:normal;text-align:end;line-height:125%;letter-spacing:0px;word-spacing:0px;writing-mode:lr-tb;text-anchor:end;fill:#000000;fill-opacity:1;stroke:none;font-family:Times New Roman;-inkscape-font-specification:Sans" x="141.00015" xml:space="preserve" y="90.988777"><tspan id="tspan4395-9-8-4-2-9-3-7" x="141.00015" y="90.988777">xout</tspan></text>
  <text id="text4393-7-9-2-7-8-2-7" sodipodi:linespacing="125%" style="font-size:16px;font-style:normal;font-variant:normal;font-weight:normal;font-stretch:normal;text-align:end;line-height:125%;letter-spacing:0px;word-spacing:0px;writing-mode:lr-tb;text-anchor:end;fill:#000000;fill-opacity:1;stroke:none;font-family:Times New Roman;-inkscape-font-specification:Sans" x="141.00015" xml:space="preserve" y="130.98878"><tspan id="tspan4395-9-8-4-2-9-3-2" x="141.00015" y="130.98878">yout</tspan></text>
  <rect height="180" id="rect2987-7-3-6-4-8" ry="0" style="fill:#aad400;fill-opacity:0.99610895;fill-rule:nonzero;stroke:#000000;stroke-width:2;stroke-linecap:square;stroke-linejoin:round;stroke-miterlimit:4;stroke-opacity:1;stroke-dasharray:none;stroke-dashoffset:0" width="180" x="201.00015" y="10.988787"/>
  <text id="text3311-8" sodipodi:linespacing="125%" style="font-size:16px;font-style:normal;font-variant:normal;font-weight:normal;font-stretch:normal;text-align:center;line-height:125%;letter-spacing:0px;word-spacing:0px;writing-mode:lr-tb;text-anchor:middle;fill:#000000;fill-opacity:1;stroke:none;font-family:Times New Roman;-inkscape-font-specification:Sans" x="291.00015" xml:space="preserve" y="180.98878"><tspan id="tspan3313-3" x="291.00015" y="180.98878">EtageTabP1</tspan></text>
  <path d="m 381.00016,50.988774 50,0" id="path2993-1-9-23-3-86" inkscape:connector-curvature="0" sodipodi:nodetypes="cc" style="fill:none;stroke:#000000;stroke-width:2;stroke-linecap:butt;stroke-linejoin:miter;stroke-miterlimit:4;stroke-opacity:1;stroke-dasharray:none;marker-end:url(#Arrow1Mend)"/>
  <text id="text4393-7-9-2-7-8-2-3" sodipodi:linespacing="125%" style="font-size:16px;font-style:normal;font-variant:normal;font-weight:normal;font-stretch:normal;text-align:end;line-height:125%;letter-spacing:0px;word-spacing:0px;writing-mode:lr-tb;text-anchor:end;fill:#000000;fill-opacity:1;stroke:none;font-family:Times New Roman;-inkscape-font-specification:Sans" x="371.00015" xml:space="preserve" y="50.988777"><tspan id="tspan4395-9-8-4-2-9-3-4" x="371.00015" y="50.988777">kout</tspan></text>
  <path d="m 381.00016,90.988774 50,0" id="path2993-1-9-23-3-5-8" inkscape:connector-curvature="0" sodipodi:nodetypes="cc" style="fill:none;stroke:#000000;stroke-width:2;stroke-linecap:butt;stroke-linejoin:miter;stroke-miterlimit:4;stroke-opacity:1;stroke-dasharray:none;marker-end:url(#Arrow1Mend)"/>
  <path d="m 381.00016,130.9888 50,0" id="path2993-1-9-23-3-2-2" inkscape:connector-curvature="0" sodipodi:nodetypes="cc" style="fill:none;stroke:#000000;stroke-width:2;stroke-linecap:butt;stroke-linejoin:miter;stroke-miterlimit:4;stroke-opacity:1;stroke-dasharray:none;marker-end:url(#Arrow1Mend)"/>
  <text id="text4393-7-9-2-7-8-2-0-3" sodipodi:linespacing="125%" style="font-size:16px;font-style:normal;font-variant:normal;font-weight:normal;font-stretch:normal;text-align:end;line-height:125%;letter-spacing:0px;word-spacing:0px;writing-mode:lr-tb;text-anchor:end;fill:#000000;fill-opacity:1;stroke:none;font-family:Times New Roman;-inkscape-font-specification:Sans" x="371.00015" xml:space="preserve" y="90.988777"><tspan id="tspan4395-9-8-4-2-9-3-7-1" x="371.00015" y="90.988777">xout</tspan></text>
  <text id="text4393-7-9-2-7-8-2-7-9" sodipodi:linespacing="125%" style="font-size:16px;font-style:normal;font-variant:normal;font-weight:normal;font-stretch:normal;text-align:end;line-height:125%;letter-spacing:0px;word-spacing:0px;writing-mode:lr-tb;text-anchor:end;fill:#000000;fill-opacity:1;stroke:none;font-family:Times New Roman;-inkscape-font-specification:Sans" x="371.00015" xml:space="preserve" y="130.98878"><tspan id="tspan4395-9-8-4-2-9-3-2-7" x="371.00015" y="130.98878">yout</tspan></text>
  <rect height="140" id="rect2987-7-3-6-4-3" ry="0" style="fill:#aad400;fill-opacity:0.99610895;fill-rule:nonzero;stroke:#000000;stroke-width:2;stroke-linecap:square;stroke-linejoin:round;stroke-miterlimit:4;stroke-opacity:1;stroke-dasharray:none;stroke-dashoffset:0" width="140" x="431.00015" y="30.988779"/>
  <text id="text3311-3" sodipodi:linespacing="125%" style="font-size:16px;font-style:normal;font-variant:normal;font-weight:normal;font-stretch:normal;text-align:center;line-height:125%;letter-spacing:0px;word-spacing:0px;writing-mode:lr-tb;text-anchor:middle;fill:#000000;fill-opacity:1;stroke:none;font-family:Times New Roman;-inkscape-font-specification:Sans" x="501.00015" xml:space="preserve" y="160.98878"><tspan id="tspan3313-2" x="501.00015" y="160.98878">DataReceptorP1</tspan></text>
  <text id="text4393-7-9-2-7-8-2-01" sodipodi:linespacing="125%" style="font-size:16px;font-style:normal;font-variant:normal;font-weight:normal;font-stretch:normal;text-align:start;line-height:125%;letter-spacing:0px;word-spacing:0px;writing-mode:lr-tb;text-anchor:start;fill:#000000;fill-opacity:1;stroke:none;font-family:Times New Roman;-inkscape-font-specification:Sans" x="412.95328" xml:space="preserve" y="50.988777"><tspan id="tspan4395-9-8-4-2-9-3-0" style="text-align:start;text-anchor:start" x="441.00015" y="50.988777">kin</tspan></text>
  <text id="text4393-7-9-2-7-8-2-0-0" sodipodi:linespacing="125%" style="font-size:16px;font-style:normal;font-variant:normal;font-weight:normal;font-stretch:normal;text-align:start;line-height:125%;letter-spacing:0px;word-spacing:0px;writing-mode:lr-tb;text-anchor:start;fill:#000000;fill-opacity:1;stroke:none;font-family:Times New Roman;-inkscape-font-specification:Sans" x="412.78922" xml:space="preserve" y="90.988777"><tspan id="tspan4395-9-8-4-2-9-3-7-5" style="text-align:start;text-anchor:start" x="441.00015" y="90.988777">xin</tspan></text>
  <text id="text4393-7-9-2-7-8-2-7-1" sodipodi:linespacing="125%" style="font-size:16px;font-style:normal;font-variant:normal;font-weight:normal;font-stretch:normal;text-align:start;line-height:125%;letter-spacing:0px;word-spacing:0px;writing-mode:lr-tb;text-anchor:start;fill:#000000;fill-opacity:1;stroke:none;font-family:Times New Roman;-inkscape-font-specification:Sans" x="412.8439" xml:space="preserve" y="130.98878"><tspan id="tspan4395-9-8-4-2-9-3-2-0" style="text-align:start;text-anchor:start" x="441.00015" y="130.98878">yin</tspan></text>
  <text id="text4393-7-9-2-7-8-2-3-5" sodipodi:linespacing="125%" style="font-size:16px;font-style:normal;font-variant:normal;font-weight:normal;font-stretch:normal;text-align:start;line-height:125%;letter-spacing:0px;word-spacing:0px;writing-mode:lr-tb;text-anchor:start;fill:#000000;fill-opacity:1;stroke:none;font-family:Times New Roman;-inkscape-font-specification:Sans" x="182.95328" xml:space="preserve" y="50.988777"><tspan id="tspan4395-9-8-4-2-9-3-4-6" style="text-align:start;text-anchor:start" x="211.00015" y="50.988777">kin</tspan></text>
  <text id="text4393-7-9-2-7-8-2-0-3-1" sodipodi:linespacing="125%" style="font-size:16px;font-style:normal;font-variant:normal;font-weight:normal;font-stretch:normal;text-align:start;line-height:125%;letter-spacing:0px;word-spacing:0px;writing-mode:lr-tb;text-anchor:start;fill:#000000;fill-opacity:1;stroke:none;font-family:Times New Roman;-inkscape-font-specification:Sans" x="182.78922" xml:space="preserve" y="90.988777"><tspan id="tspan4395-9-8-4-2-9-3-7-1-8" style="text-align:start;text-anchor:start" x="211.00015" y="90.988777">xin</tspan></text>
  <text id="text4393-7-9-2-7-8-2-7-9-0" sodipodi:linespacing="125%" style="font-size:16px;font-style:normal;font-variant:normal;font-weight:normal;font-stretch:normal;text-align:start;line-height:125%;letter-spacing:0px;word-spacing:0px;writing-mode:lr-tb;text-anchor:start;fill:#000000;fill-opacity:1;stroke:none;font-family:Times New Roman;-inkscape-font-specification:Sans" x="182.8439" xml:space="preserve" y="130.98878"><tspan id="tspan4395-9-8-4-2-9-3-2-7-4" style="text-align:start;text-anchor:start" x="211.00015" y="130.98878">yin</tspan></text>
</g></svg>