<?xml version="1.0" encoding="UTF-8"?>
<svg xmlns:xlink="http://www.w3.org/1999/xlink" xmlns="http://www.w3.org/2000/svg" contentScriptType="text/ecmascript" width="450" zoomAndPan="magnify" contentStyleType="text/css" height="250" preserveAspectRatio="xMidYMid meet" version="1.0">
<g>
<rect x="11" width="428" y="11" height="228" style="stroke:blue;stroke-width:2;fill:#ffffcc;"/>
<rect width="20" x="2" height="20" y="30" id="plot_signal_a" style="stroke:blue;stroke-width:2; fill:#ffffcc;"/>
<text x="24" y="36" id="name_signal_a" style="text-anchor:start;fill:red;font-family:Dialog;font-size:12;">a</text>
<rect width="20" x="2" height="20" y="70" id="plot_signal_b" style="stroke:blue;stroke-width:2; fill:#ffffcc;"/>
<text x="24" y="76" id="name_signal_b" style="text-anchor:start;fill:red;font-family:Dialog;font-size:12;">b</text>
<rect width="20" x="2" height="20" y="110" id="plot_signal_c" style="stroke:blue;stroke-width:2; fill:#ffffcc;"/>
<text x="24" y="116" id="name_signal_c" style="text-anchor:start;fill:red;font-family:Dialog;font-size:12;">c</text>
<rect width="20" x="428" height="20" y="30" id="plot_signal_nbrSol" style="stroke:blue;stroke-width:2; fill:#ffffcc;"/>
<text x="426" y="36" id="name_signal_nbrSol" style="text-anchor:end;fill:red;font-family:Dialog;font-size:12;">nbrSol</text>
<rect width="20" x="428" height="20" y="70" id="plot_signal_sol1" style="stroke:blue;stroke-width:2; fill:#ffffcc;"/>
<text x="426" y="76" id="name_signal_sol1" style="text-anchor:end;fill:red;font-family:Dialog;font-size:12;">sol1</text>
<rect width="20" x="428" height="20" y="110" id="plot_signal_sol2" style="stroke:blue;stroke-width:2; fill:#ffffcc;"/>
<text x="426" y="116" id="name_signal_sol2" style="text-anchor:end;fill:red;font-family:Dialog;font-size:12;">sol2</text>
<text style="text-anchor:end;fill:blue;font-family:Dialog;font-size:10;" x="436" y="8"/>
<text style="text-anchor:end;fill:blue;font-family:Dialog;font-size:10;" x="436" y="20">demo.eq2d</text>
<text style="text-anchor:end;fill:blue;font-family:Dialog;font-size:10;" x="436" y="233">Eq2ndDeg</text>
</g>
<g id="modSol" transform="translate(230,30)">
<rect x="11" width="110" y="11" height="138" style="stroke:blue;stroke-width:2;fill:#ffffcc;"/>
<rect width="20" x="2" height="20" y="30" id="plot_signal_a" style="stroke:blue;stroke-width:2; fill:#ffffcc;"/>
<text x="24" y="36" id="name_signal_a" style="text-anchor:start;fill:red;font-family:Dialog;font-size:12;">a</text>
<rect width="20" x="2" height="20" y="70" id="plot_signal_b" style="stroke:blue;stroke-width:2; fill:#ffffcc;"/>
<text x="24" y="76" id="name_signal_b" style="text-anchor:start;fill:red;font-family:Dialog;font-size:12;">b</text>
<rect width="20" x="2" height="20" y="110" id="plot_signal_delta" style="stroke:blue;stroke-width:2; fill:#ffffcc;"/>
<text x="24" y="116" id="name_signal_delta" style="text-anchor:start;fill:red;font-family:Dialog;font-size:12;">delta</text>
<rect width="20" x="110" height="20" y="30" id="plot_signal_nbrSol" style="stroke:blue;stroke-width:2; fill:#ffffcc;"/>
<text x="108" y="36" id="name_signal_nbrSol" style="text-anchor:end;fill:red;font-family:Dialog;font-size:12;">nbrSol</text>
<rect width="20" x="110" height="20" y="70" id="plot_signal_sol1" style="stroke:blue;stroke-width:2; fill:#ffffcc;"/>
<text x="108" y="76" id="name_signal_sol1" style="text-anchor:end;fill:red;font-family:Dialog;font-size:12;">sol1</text>
<rect width="20" x="110" height="20" y="110" id="plot_signal_sol2" style="stroke:blue;stroke-width:2; fill:#ffffcc;"/>
<text x="108" y="116" id="name_signal_sol2" style="text-anchor:end;fill:red;font-family:Dialog;font-size:12;">sol2</text>
<text style="text-anchor:end;fill:blue;font-family:Dialog;font-size:10;" x="118" y="8">modSol</text>
<text style="text-anchor:end;fill:blue;font-family:Dialog;font-size:10;" x="118" y="20">demo.eq2d</text>
<text style="text-anchor:end;fill:blue;font-family:Dialog;font-size:10;" x="118" y="143">Solution</text>
</g>
<g id="modDisc" transform="translate(70,30)">
<rect x="11" width="90" y="11" height="138" style="stroke:blue;stroke-width:2;fill:#ffffcc;"/>
<rect width="20" x="2" height="20" y="30" id="plot_signal_va" style="stroke:blue;stroke-width:2; fill:#ffffcc;"/>
<text x="24" y="36" id="name_signal_va" style="text-anchor:start;fill:red;font-family:Dialog;font-size:12;">va</text>
<rect width="20" x="2" height="20" y="70" id="plot_signal_vb" style="stroke:blue;stroke-width:2; fill:#ffffcc;"/>
<text x="24" y="76" id="name_signal_vb" style="text-anchor:start;fill:red;font-family:Dialog;font-size:12;">vb</text>
<rect width="20" x="2" height="20" y="110" id="plot_signal_vc" style="stroke:blue;stroke-width:2; fill:#ffffcc;"/>
<text x="24" y="116" id="name_signal_vc" style="text-anchor:start;fill:red;font-family:Dialog;font-size:12;">vc</text>
<rect width="20" x="90" height="20" y="30" id="plot_signal_vdelta" style="stroke:blue;stroke-width:2; fill:#ffffcc;"/>
<text x="88" y="36" id="name_signal_vdelta" style="text-anchor:end;fill:red;font-family:Dialog;font-size:12;">vdelta</text>
<text style="text-anchor:end;fill:blue;font-family:Dialog;font-size:10;" x="98" y="8">modDisc</text>
<text style="text-anchor:end;fill:blue;font-family:Dialog;font-size:10;" x="98" y="20">demo.eq2d</text>
<text style="text-anchor:end;fill:blue;font-family:Dialog;font-size:10;" x="98" y="143">Discriminant</text>
</g>
<path fill="none" d="M 350 150 410 150 410 118 436 118" id="sol2" style="stroke:rgb(0, 255,0);stroke-width:4"/>
<path fill="none" d="M 350 110 404 110 404 78 436 78" id="sol1" style="stroke:rgb(0, 255,0);stroke-width:4"/>
<path fill="none" d="M 350 70 398 70 398 38 436 38" id="nbrSol" style="stroke:rgb(0, 255,0);stroke-width:4"/>
<path fill="none" d="M 10 38 64 38 64 70 82 70 64 70 64 196 224 196 224 196 224 70 242 70" id="a" style="stroke:rgb(0, 255,0);stroke-width:4"/>
<path fill="none" d="M 10 118 58 118 58 150 82 150" id="c" style="stroke:rgb(0, 255,0);stroke-width:4"/>
<path fill="none" d="M 10 78 52 78 52 110 82 110 52 110 52 202 218 202 218 202 218 110 242 110" id="b" style="stroke:rgb(0, 255,0);stroke-width:4"/>
<path fill="none" d="M 170 70 212 70 212 150 242 150" id="delta" style="stroke:rgb(0, 255,0);stroke-width:4"/>
</svg>
