<?xml version="1.0" encoding="UTF-8"?><!-- Created with Inkscape (http://www.inkscape.org/) --><svg xmlns="http://www.w3.org/2000/svg" xmlns:inkscape="http://www.inkscape.org/namespaces/inkscape" xmlns:sodipodi="http://sodipodi.sourceforge.net/DTD/sodipodi-0.dtd" xmlns:cc="http://creativecommons.org/ns#" xmlns:dc="http://purl.org/dc/elements/1.1/" xmlns:rdf="http://www.w3.org/1999/02/22-rdf-syntax-ns#" xmlns:svg="http://www.w3.org/2000/svg" height="169.4" id="svg2" inkscape:version="0.48.3.1 r9886" sodipodi:docname="EtageTabPA-4etages.svg" version="1.1" viewBox="0 0 513.45 169.4" width="513.45">
  <sodipodi:namedview bordercolor="#666666" borderopacity="1" fit-margin-bottom="0" fit-margin-left="0" fit-margin-right="0" fit-margin-top="0" gridtolerance="10" guidetolerance="10" id="namedview26" inkscape:current-layer="svg2" inkscape:cx="350.37069" inkscape:cy="-55.072365" inkscape:pageopacity="0" inkscape:pageshadow="2" inkscape:snap-grids="true" inkscape:window-height="871" inkscape:window-maximized="0" inkscape:window-width="1041" inkscape:window-x="203" inkscape:window-y="78" inkscape:zoom="0.89571167" objecttolerance="10" pagecolor="#ffffff" showgrid="true">
    <inkscape:grid empspacing="5" enabled="true" id="grid3002" originx="331px" originy="340.99999px" snapvisiblegridlinesonly="true" type="xygrid" visible="true"/>
  </sodipodi:namedview>
  <defs id="defs4">
    <marker id="Arrow1Mend" orient="auto" refX="0" refY="0" style="overflow:visible">
      <path d="M 0,0 5,-5 -12.5,0 5,5 0,0 z" id="path3776" inkscape:connector-curvature="0" style="fill-rule:evenodd;stroke:#000000;stroke-width:1pt" transform="matrix(-0.4,0,0,-0.4,-4,0)"/>
    </marker>
    <marker id="Arrow2Lend" orient="auto" refX="0" refY="0" style="overflow:visible">
      <path d="M 8.7185878,4.0337352 -2.2072895,0.01601326 8.7185884,-4.0017078 c -1.7454984,2.3720609 -1.7354408,5.6174519 -6e-7,8.035443 z" id="path3788" inkscape:connector-curvature="0" style="fill-rule:evenodd;stroke-width:0.625;stroke-linejoin:round" transform="matrix(-1.1,0,0,-1.1,-1.1,0)"/>
    </marker>
    <marker id="Arrow1Mend-6" orient="auto" refX="0" refY="0" style="overflow:visible">
      <path d="M 0,0 5,-5 -12.5,0 5,5 0,0 z" id="path3776-7" inkscape:connector-curvature="0" style="fill-rule:evenodd;stroke:#000000;stroke-width:1pt" transform="matrix(-0.4,0,0,-0.4,-4,0)"/>
    </marker>
    <marker id="Arrow1Mend-0" orient="auto" refX="0" refY="0" style="overflow:visible">
      <path d="M 0,0 5,-5 -12.5,0 5,5 0,0 z" id="path3776-76" inkscape:connector-curvature="0" style="fill-rule:evenodd;stroke:#000000;stroke-width:1pt" transform="matrix(-0.4,0,0,-0.4,-4,0)"/>
    </marker>
    <marker id="Arrow1Mend-3" orient="auto" refX="0" refY="0" style="overflow:visible">
      <path d="M 0,0 5,-5 -12.5,0 5,5 0,0 z" id="path3776-8" inkscape:connector-curvature="0" style="fill-rule:evenodd;stroke:#000000;stroke-width:1pt" transform="matrix(-0.4,0,0,-0.4,-4,0)"/>
    </marker>
    <marker id="Arrow1Mend-5" orient="auto" refX="0" refY="0" style="overflow:visible">
      <path d="M 0,0 5,-5 -12.5,0 5,5 0,0 z" id="path3776-9" inkscape:connector-curvature="0" style="fill-rule:evenodd;stroke:#000000;stroke-width:1pt" transform="matrix(-0.4,0,0,-0.4,-4,0)"/>
    </marker>
    <marker id="Arrow1Mend-36" orient="auto" refX="0" refY="0" style="overflow:visible">
      <path d="M 0,0 5,-5 -12.5,0 5,5 0,0 z" id="path3776-94" inkscape:connector-curvature="0" style="fill-rule:evenodd;stroke:#000000;stroke-width:1pt" transform="matrix(-0.4,0,0,-0.4,-4,0)"/>
    </marker>
    <marker id="Arrow1Mend-2" orient="auto" refX="0" refY="0" style="overflow:visible">
      <path d="M 0,0 5,-5 -12.5,0 5,5 0,0 z" id="path3776-4" inkscape:connector-curvature="0" style="fill-rule:evenodd;stroke:#000000;stroke-width:1pt" transform="matrix(-0.4,0,0,-0.4,-4,0)"/>
    </marker>
    <marker id="Arrow1Mend-8" orient="auto" refX="0" refY="0" style="overflow:visible">
      <path d="M 0,0 5,-5 -12.5,0 5,5 0,0 z" id="path3776-2" inkscape:connector-curvature="0" style="fill-rule:evenodd;stroke:#000000;stroke-width:1pt" transform="matrix(-0.4,0,0,-0.4,-4,0)"/>
    </marker>
    <marker id="Arrow1Mend-59" orient="auto" refX="0" refY="0" style="overflow:visible">
      <path d="M 0,0 5,-5 -12.5,0 5,5 0,0 z" id="path3776-5" inkscape:connector-curvature="0" style="fill-rule:evenodd;stroke:#000000;stroke-width:1pt" transform="matrix(-0.4,0,0,-0.4,-4,0)"/>
    </marker>
    <marker id="Arrow1Mend-69" orient="auto" refX="0" refY="0" style="overflow:visible">
      <path d="M 0,0 5,-5 -12.5,0 5,5 0,0 z" id="path3776-3" inkscape:connector-curvature="0" style="fill-rule:evenodd;stroke:#000000;stroke-width:1pt" transform="matrix(-0.4,0,0,-0.4,-4,0)"/>
    </marker>
    <marker id="Arrow1Mend-39" orient="auto" refX="0" refY="0" style="overflow:visible">
      <path d="M 0,0 5,-5 -12.5,0 5,5 0,0 z" id="path3776-0" inkscape:connector-curvature="0" style="fill-rule:evenodd;stroke:#000000;stroke-width:1pt" transform="matrix(-0.4,0,0,-0.4,-4,0)"/>
    </marker>
    <marker id="Arrow1Mend-392" orient="auto" refX="0" refY="0" style="overflow:visible">
      <path d="M 0,0 5,-5 -12.5,0 5,5 0,0 z" id="path3776-25" inkscape:connector-curvature="0" style="fill-rule:evenodd;stroke:#000000;stroke-width:1pt" transform="matrix(-0.4,0,0,-0.4,-4,0)"/>
    </marker>
    <marker id="marker3389" orient="auto" refX="0" refY="0" style="overflow:visible">
      <path d="M 0,0 5,-5 -12.5,0 5,5 0,0 z" id="path3391" inkscape:connector-curvature="0" style="fill-rule:evenodd;stroke:#000000;stroke-width:1pt" transform="matrix(-0.4,0,0,-0.4,-4,0)"/>
    </marker>
    <marker id="marker3393" orient="auto" refX="0" refY="0" style="overflow:visible">
      <path d="M 0,0 5,-5 -12.5,0 5,5 0,0 z" id="path3395" inkscape:connector-curvature="0" style="fill-rule:evenodd;stroke:#000000;stroke-width:1pt" transform="matrix(-0.4,0,0,-0.4,-4,0)"/>
    </marker>
    <marker id="marker3397" orient="auto" refX="0" refY="0" style="overflow:visible">
      <path d="M 0,0 5,-5 -12.5,0 5,5 0,0 z" id="path3399" inkscape:connector-curvature="0" style="fill-rule:evenodd;stroke:#000000;stroke-width:1pt" transform="matrix(-0.4,0,0,-0.4,-4,0)"/>
    </marker>
    <marker id="marker3401" orient="auto" refX="0" refY="0" style="overflow:visible">
      <path d="M 0,0 5,-5 -12.5,0 5,5 0,0 z" id="path3403" inkscape:connector-curvature="0" style="fill-rule:evenodd;stroke:#000000;stroke-width:1pt" transform="matrix(-0.4,0,0,-0.4,-4,0)"/>
    </marker>
    <marker id="Arrow1Mend-9" orient="auto" refX="0" refY="0" style="overflow:visible">
      <path d="M 0,0 5,-5 -12.5,0 5,5 0,0 z" id="path3776-1" inkscape:connector-curvature="0" style="fill-rule:evenodd;stroke:#000000;stroke-width:1pt" transform="matrix(-0.4,0,0,-0.4,-4,0)"/>
    </marker>
    <marker id="Arrow1Mend-1" orient="auto" refX="0" refY="0" style="overflow:visible">
      <path d="M 0,0 5,-5 -12.5,0 5,5 0,0 z" id="path3776-15" inkscape:connector-curvature="0" style="fill-rule:evenodd;stroke:#000000;stroke-width:1pt" transform="matrix(-0.4,0,0,-0.4,-4,0)"/>
    </marker>
    <marker id="marker3623" orient="auto" refX="0" refY="0" style="overflow:visible">
      <path d="M 0,0 5,-5 -12.5,0 5,5 0,0 z" id="path3625" inkscape:connector-curvature="0" style="fill-rule:evenodd;stroke:#000000;stroke-width:1pt" transform="matrix(-0.4,0,0,-0.4,-4,0)"/>
    </marker>
    <marker id="marker3627" orient="auto" refX="0" refY="0" style="overflow:visible">
      <path d="M 0,0 5,-5 -12.5,0 5,5 0,0 z" id="path3629" inkscape:connector-curvature="0" style="fill-rule:evenodd;stroke:#000000;stroke-width:1pt" transform="matrix(-0.4,0,0,-0.4,-4,0)"/>
    </marker>
    <marker id="marker3631" orient="auto" refX="0" refY="0" style="overflow:visible">
      <path d="M 0,0 5,-5 -12.5,0 5,5 0,0 z" id="path3633" inkscape:connector-curvature="0" style="fill-rule:evenodd;stroke:#000000;stroke-width:1pt" transform="matrix(-0.4,0,0,-0.4,-4,0)"/>
    </marker>
    <marker id="marker3635" orient="auto" refX="0" refY="0" style="overflow:visible">
      <path d="M 0,0 5,-5 -12.5,0 5,5 0,0 z" id="path3637" inkscape:connector-curvature="0" style="fill-rule:evenodd;stroke:#000000;stroke-width:1pt" transform="matrix(-0.4,0,0,-0.4,-4,0)"/>
    </marker>
    <marker id="Arrow1Mend-08" orient="auto" refX="0" refY="0" style="overflow:visible">
      <path d="M 0,0 5,-5 -12.5,0 5,5 0,0 z" id="path3776-12" inkscape:connector-curvature="0" style="fill-rule:evenodd;stroke:#000000;stroke-width:1pt" transform="matrix(-0.4,0,0,-0.4,-4,0)"/>
    </marker>
    <marker id="marker3623-2" orient="auto" refX="0" refY="0" style="overflow:visible">
      <path d="M 0,0 5,-5 -12.5,0 5,5 0,0 z" id="path3625-2" inkscape:connector-curvature="0" style="fill-rule:evenodd;stroke:#000000;stroke-width:1pt" transform="matrix(-0.4,0,0,-0.4,-4,0)"/>
    </marker>
    <marker id="marker3627-4" orient="auto" refX="0" refY="0" style="overflow:visible">
      <path d="M 0,0 5,-5 -12.5,0 5,5 0,0 z" id="path3629-9" inkscape:connector-curvature="0" style="fill-rule:evenodd;stroke:#000000;stroke-width:1pt" transform="matrix(-0.4,0,0,-0.4,-4,0)"/>
    </marker>
    <marker id="marker3631-2" orient="auto" refX="0" refY="0" style="overflow:visible">
      <path d="M 0,0 5,-5 -12.5,0 5,5 0,0 z" id="path3633-8" inkscape:connector-curvature="0" style="fill-rule:evenodd;stroke:#000000;stroke-width:1pt" transform="matrix(-0.4,0,0,-0.4,-4,0)"/>
    </marker>
    <marker id="marker3635-4" orient="auto" refX="0" refY="0" style="overflow:visible">
      <path d="M 0,0 5,-5 -12.5,0 5,5 0,0 z" id="path3637-3" inkscape:connector-curvature="0" style="fill-rule:evenodd;stroke:#000000;stroke-width:1pt" transform="matrix(-0.4,0,0,-0.4,-4,0)"/>
    </marker>
    <marker id="Arrow1Mend-82" orient="auto" refX="0" refY="0" style="overflow:visible">
      <path d="M 0,0 5,-5 -12.5,0 5,5 0,0 z" id="path3776-22" inkscape:connector-curvature="0" style="fill-rule:evenodd;stroke:#000000;stroke-width:1pt" transform="matrix(-0.4,0,0,-0.4,-4,0)"/>
    </marker>
    <marker id="marker3623-26" orient="auto" refX="0" refY="0" style="overflow:visible">
      <path d="M 0,0 5,-5 -12.5,0 5,5 0,0 z" id="path3625-6" inkscape:connector-curvature="0" style="fill-rule:evenodd;stroke:#000000;stroke-width:1pt" transform="matrix(-0.4,0,0,-0.4,-4,0)"/>
    </marker>
    <marker id="marker3627-5" orient="auto" refX="0" refY="0" style="overflow:visible">
      <path d="M 0,0 5,-5 -12.5,0 5,5 0,0 z" id="path3629-7" inkscape:connector-curvature="0" style="fill-rule:evenodd;stroke:#000000;stroke-width:1pt" transform="matrix(-0.4,0,0,-0.4,-4,0)"/>
    </marker>
    <marker id="marker3631-5" orient="auto" refX="0" refY="0" style="overflow:visible">
      <path d="M 0,0 5,-5 -12.5,0 5,5 0,0 z" id="path3633-7" inkscape:connector-curvature="0" style="fill-rule:evenodd;stroke:#000000;stroke-width:1pt" transform="matrix(-0.4,0,0,-0.4,-4,0)"/>
    </marker>
    <marker id="marker3635-7" orient="auto" refX="0" refY="0" style="overflow:visible">
      <path d="M 0,0 5,-5 -12.5,0 5,5 0,0 z" id="path3637-0" inkscape:connector-curvature="0" style="fill-rule:evenodd;stroke:#000000;stroke-width:1pt" transform="matrix(-0.4,0,0,-0.4,-4,0)"/>
    </marker>
    <marker id="Arrow1Mend-68" orient="auto" refX="0" refY="0" style="overflow:visible">
      <path d="M 0,0 5,-5 -12.5,0 5,5 0,0 z" id="path3776-82" inkscape:connector-curvature="0" style="fill-rule:evenodd;stroke:#000000;stroke-width:1pt" transform="matrix(-0.4,0,0,-0.4,-4,0)"/>
    </marker>
    <marker id="marker4891" orient="auto" refX="0" refY="0" style="overflow:visible">
      <path d="M 0,0 5,-5 -12.5,0 5,5 0,0 z" id="path4893" inkscape:connector-curvature="0" style="fill-rule:evenodd;stroke:#000000;stroke-width:1pt" transform="matrix(-0.4,0,0,-0.4,-4,0)"/>
    </marker>
    <marker id="marker4895" orient="auto" refX="0" refY="0" style="overflow:visible">
      <path d="M 0,0 5,-5 -12.5,0 5,5 0,0 z" id="path4897" inkscape:connector-curvature="0" style="fill-rule:evenodd;stroke:#000000;stroke-width:1pt" transform="matrix(-0.4,0,0,-0.4,-4,0)"/>
    </marker>
    <marker id="marker4899" orient="auto" refX="0" refY="0" style="overflow:visible">
      <path d="M 0,0 5,-5 -12.5,0 5,5 0,0 z" id="path4901" inkscape:connector-curvature="0" style="fill-rule:evenodd;stroke:#000000;stroke-width:1pt" transform="matrix(-0.4,0,0,-0.4,-4,0)"/>
    </marker>
    <marker id="marker4903" orient="auto" refX="0" refY="0" style="overflow:visible">
      <path d="M 0,0 5,-5 -12.5,0 5,5 0,0 z" id="path4905" inkscape:connector-curvature="0" style="fill-rule:evenodd;stroke:#000000;stroke-width:1pt" transform="matrix(-0.4,0,0,-0.4,-4,0)"/>
    </marker>
    <marker id="Arrow1Mend-16" orient="auto" refX="0" refY="0" style="overflow:visible">
      <path d="M 0,0 5,-5 -12.5,0 5,5 0,0 z" id="path3776-58" inkscape:connector-curvature="0" style="fill-rule:evenodd;stroke:#000000;stroke-width:1pt" transform="matrix(-0.4,0,0,-0.4,-4,0)"/>
    </marker>
    <marker id="marker4995" orient="auto" refX="0" refY="0" style="overflow:visible">
      <path d="M 0,0 5,-5 -12.5,0 5,5 0,0 z" id="path4997" inkscape:connector-curvature="0" style="fill-rule:evenodd;stroke:#000000;stroke-width:1pt" transform="matrix(-0.4,0,0,-0.4,-4,0)"/>
    </marker>
    <marker id="marker4999" orient="auto" refX="0" refY="0" style="overflow:visible">
      <path d="M 0,0 5,-5 -12.5,0 5,5 0,0 z" id="path5001" inkscape:connector-curvature="0" style="fill-rule:evenodd;stroke:#000000;stroke-width:1pt" transform="matrix(-0.4,0,0,-0.4,-4,0)"/>
    </marker>
    <marker id="marker5003" orient="auto" refX="0" refY="0" style="overflow:visible">
      <path d="M 0,0 5,-5 -12.5,0 5,5 0,0 z" id="path5005" inkscape:connector-curvature="0" style="fill-rule:evenodd;stroke:#000000;stroke-width:1pt" transform="matrix(-0.4,0,0,-0.4,-4,0)"/>
    </marker>
    <marker id="marker5007" orient="auto" refX="0" refY="0" style="overflow:visible">
      <path d="M 0,0 5,-5 -12.5,0 5,5 0,0 z" id="path5009" inkscape:connector-curvature="0" style="fill-rule:evenodd;stroke:#000000;stroke-width:1pt" transform="matrix(-0.4,0,0,-0.4,-4,0)"/>
    </marker>
    <marker id="marker5011" orient="auto" refX="0" refY="0" style="overflow:visible">
      <path d="M 0,0 5,-5 -12.5,0 5,5 0,0 z" id="path5013" inkscape:connector-curvature="0" style="fill-rule:evenodd;stroke:#000000;stroke-width:1pt" transform="matrix(-0.4,0,0,-0.4,-4,0)"/>
    </marker>
    <marker id="marker5015" orient="auto" refX="0" refY="0" style="overflow:visible">
      <path d="M 0,0 5,-5 -12.5,0 5,5 0,0 z" id="path5017" inkscape:connector-curvature="0" style="fill-rule:evenodd;stroke:#000000;stroke-width:1pt" transform="matrix(-0.4,0,0,-0.4,-4,0)"/>
    </marker>
    <marker id="marker5019" orient="auto" refX="0" refY="0" style="overflow:visible">
      <path d="M 0,0 5,-5 -12.5,0 5,5 0,0 z" id="path5021" inkscape:connector-curvature="0" style="fill-rule:evenodd;stroke:#000000;stroke-width:1pt" transform="matrix(-0.4,0,0,-0.4,-4,0)"/>
    </marker>
    <marker id="marker5023" orient="auto" refX="0" refY="0" style="overflow:visible">
      <path d="M 0,0 5,-5 -12.5,0 5,5 0,0 z" id="path5025" inkscape:connector-curvature="0" style="fill-rule:evenodd;stroke:#000000;stroke-width:1pt" transform="matrix(-0.4,0,0,-0.4,-4,0)"/>
    </marker>
    <marker id="marker5027" orient="auto" refX="0" refY="0" style="overflow:visible">
      <path d="M 0,0 5,-5 -12.5,0 5,5 0,0 z" id="path5029" inkscape:connector-curvature="0" style="fill-rule:evenodd;stroke:#000000;stroke-width:1pt" transform="matrix(-0.4,0,0,-0.4,-4,0)"/>
    </marker>
    <marker id="marker5031" orient="auto" refX="0" refY="0" style="overflow:visible">
      <path d="M 0,0 5,-5 -12.5,0 5,5 0,0 z" id="path5033" inkscape:connector-curvature="0" style="fill-rule:evenodd;stroke:#000000;stroke-width:1pt" transform="matrix(-0.4,0,0,-0.4,-4,0)"/>
    </marker>
    <marker id="marker5035" orient="auto" refX="0" refY="0" style="overflow:visible">
      <path d="M 0,0 5,-5 -12.5,0 5,5 0,0 z" id="path5037" inkscape:connector-curvature="0" style="fill-rule:evenodd;stroke:#000000;stroke-width:1pt" transform="matrix(-0.4,0,0,-0.4,-4,0)"/>
    </marker>
    <marker id="marker5039" orient="auto" refX="0" refY="0" style="overflow:visible">
      <path d="M 0,0 5,-5 -12.5,0 5,5 0,0 z" id="path5041" inkscape:connector-curvature="0" style="fill-rule:evenodd;stroke:#000000;stroke-width:1pt" transform="matrix(-0.4,0,0,-0.4,-4,0)"/>
    </marker>
    <marker id="marker5043" orient="auto" refX="0" refY="0" style="overflow:visible">
      <path d="M 0,0 5,-5 -12.5,0 5,5 0,0 z" id="path5045" inkscape:connector-curvature="0" style="fill-rule:evenodd;stroke:#000000;stroke-width:1pt" transform="matrix(-0.4,0,0,-0.4,-4,0)"/>
    </marker>
    <marker id="marker5047" orient="auto" refX="0" refY="0" style="overflow:visible">
      <path d="M 0,0 5,-5 -12.5,0 5,5 0,0 z" id="path5049" inkscape:connector-curvature="0" style="fill-rule:evenodd;stroke:#000000;stroke-width:1pt" transform="matrix(-0.4,0,0,-0.4,-4,0)"/>
    </marker>
    <marker id="marker5051" orient="auto" refX="0" refY="0" style="overflow:visible">
      <path d="M 0,0 5,-5 -12.5,0 5,5 0,0 z" id="path5053" inkscape:connector-curvature="0" style="fill-rule:evenodd;stroke:#000000;stroke-width:1pt" transform="matrix(-0.4,0,0,-0.4,-4,0)"/>
    </marker>
    <marker id="marker5055" orient="auto" refX="0" refY="0" style="overflow:visible">
      <path d="M 0,0 5,-5 -12.5,0 5,5 0,0 z" id="path5057" inkscape:connector-curvature="0" style="fill-rule:evenodd;stroke:#000000;stroke-width:1pt" transform="matrix(-0.4,0,0,-0.4,-4,0)"/>
    </marker>
    <marker id="marker5059" orient="auto" refX="0" refY="0" style="overflow:visible">
      <path d="M 0,0 5,-5 -12.5,0 5,5 0,0 z" id="path5061" inkscape:connector-curvature="0" style="fill-rule:evenodd;stroke:#000000;stroke-width:1pt" transform="matrix(-0.4,0,0,-0.4,-4,0)"/>
    </marker>
    <marker id="marker5063" orient="auto" refX="0" refY="0" style="overflow:visible">
      <path d="M 0,0 5,-5 -12.5,0 5,5 0,0 z" id="path5065" inkscape:connector-curvature="0" style="fill-rule:evenodd;stroke:#000000;stroke-width:1pt" transform="matrix(-0.4,0,0,-0.4,-4,0)"/>
    </marker>
    <marker id="marker5067" orient="auto" refX="0" refY="0" style="overflow:visible">
      <path d="M 0,0 5,-5 -12.5,0 5,5 0,0 z" id="path5069" inkscape:connector-curvature="0" style="fill-rule:evenodd;stroke:#000000;stroke-width:1pt" transform="matrix(-0.4,0,0,-0.4,-4,0)"/>
    </marker>
    <marker id="Arrow1Mend-54" orient="auto" refX="0" refY="0" style="overflow:visible">
      <path d="M 0,0 5,-5 -12.5,0 5,5 0,0 z" id="path3776-41" inkscape:connector-curvature="0" style="fill-rule:evenodd;stroke:#000000;stroke-width:1pt" transform="matrix(-0.4,0,0,-0.4,-4,0)"/>
    </marker>
    <marker id="marker5405" orient="auto" refX="0" refY="0" style="overflow:visible">
      <path d="M 0,0 5,-5 -12.5,0 5,5 0,0 z" id="path5407" inkscape:connector-curvature="0" style="fill-rule:evenodd;stroke:#000000;stroke-width:1pt" transform="matrix(-0.4,0,0,-0.4,-4,0)"/>
    </marker>
    <marker id="marker5409" orient="auto" refX="0" refY="0" style="overflow:visible">
      <path d="M 0,0 5,-5 -12.5,0 5,5 0,0 z" id="path5411" inkscape:connector-curvature="0" style="fill-rule:evenodd;stroke:#000000;stroke-width:1pt" transform="matrix(-0.4,0,0,-0.4,-4,0)"/>
    </marker>
    <marker id="Arrow1Mend-04" orient="auto" refX="0" refY="0" style="overflow:visible">
      <path d="M 0,0 5,-5 -12.5,0 5,5 0,0 z" id="path3776-45" inkscape:connector-curvature="0" style="fill-rule:evenodd;stroke:#000000;stroke-width:1pt" transform="matrix(-0.4,0,0,-0.4,-4,0)"/>
    </marker>
    <marker id="Arrow1Mend-17" orient="auto" refX="0" refY="0" style="overflow:visible">
      <path d="M 0,0 5,-5 -12.5,0 5,5 0,0 z" id="path3776-73" inkscape:connector-curvature="0" style="fill-rule:evenodd;stroke:#000000;stroke-width:1pt" transform="matrix(-0.4,0,0,-0.4,-4,0)"/>
    </marker>
    <marker id="Arrow1Mend-50" orient="auto" refX="0" refY="0" style="overflow:visible">
      <path d="M 0,0 5,-5 -12.5,0 5,5 0,0 z" id="path3776-152" inkscape:connector-curvature="0" style="fill-rule:evenodd;stroke:#000000;stroke-width:1pt" transform="matrix(-0.4,0,0,-0.4,-4,0)"/>
    </marker>
    <marker id="Arrow1Mend-7" orient="auto" refX="0" refY="0" style="overflow:visible">
      <path d="M 0,0 5,-5 -12.5,0 5,5 0,0 z" id="path3776-46" inkscape:connector-curvature="0" style="fill-rule:evenodd;stroke:#000000;stroke-width:1pt" transform="matrix(-0.4,0,0,-0.4,-4,0)"/>
    </marker>
    <marker id="marker3392" orient="auto" refX="0" refY="0" style="overflow:visible">
      <path d="M 0,0 5,-5 -12.5,0 5,5 0,0 z" id="path3394" inkscape:connector-curvature="0" style="fill-rule:evenodd;stroke:#000000;stroke-width:1pt" transform="matrix(-0.4,0,0,-0.4,-4,0)"/>
    </marker>
    <marker id="marker3396" orient="auto" refX="0" refY="0" style="overflow:visible">
      <path d="M 0,0 5,-5 -12.5,0 5,5 0,0 z" id="path3398" inkscape:connector-curvature="0" style="fill-rule:evenodd;stroke:#000000;stroke-width:1pt" transform="matrix(-0.4,0,0,-0.4,-4,0)"/>
    </marker>
    <marker id="Arrow1Mend-94" orient="auto" refX="0" refY="0" style="overflow:visible">
      <path d="M 0,0 5,-5 -12.5,0 5,5 0,0 z" id="path3776-59" inkscape:connector-curvature="0" style="fill-rule:evenodd;stroke:#000000;stroke-width:1pt" transform="matrix(-0.4,0,0,-0.4,-4,0)"/>
    </marker>
    <marker id="marker3392-9" orient="auto" refX="0" refY="0" style="overflow:visible">
      <path d="M 0,0 5,-5 -12.5,0 5,5 0,0 z" id="path3394-6" inkscape:connector-curvature="0" style="fill-rule:evenodd;stroke:#000000;stroke-width:1pt" transform="matrix(-0.4,0,0,-0.4,-4,0)"/>
    </marker>
    <marker id="marker3396-4" orient="auto" refX="0" refY="0" style="overflow:visible">
      <path d="M 0,0 5,-5 -12.5,0 5,5 0,0 z" id="path3398-6" inkscape:connector-curvature="0" style="fill-rule:evenodd;stroke:#000000;stroke-width:1pt" transform="matrix(-0.4,0,0,-0.4,-4,0)"/>
    </marker>
    <marker id="Arrow1Mend-09" orient="auto" refX="0" refY="0" style="overflow:visible">
      <path d="M 0,0 5,-5 -12.5,0 5,5 0,0 z" id="path3776-85" inkscape:connector-curvature="0" style="fill-rule:evenodd;stroke:#000000;stroke-width:1pt" transform="matrix(-0.4,0,0,-0.4,-4,0)"/>
    </marker>
    <marker id="marker3579" orient="auto" refX="0" refY="0" style="overflow:visible">
      <path d="M 0,0 5,-5 -12.5,0 5,5 0,0 z" id="path3581" inkscape:connector-curvature="0" style="fill-rule:evenodd;stroke:#000000;stroke-width:1pt" transform="matrix(-0.4,0,0,-0.4,-4,0)"/>
    </marker>
    <marker id="marker3583" orient="auto" refX="0" refY="0" style="overflow:visible">
      <path d="M 0,0 5,-5 -12.5,0 5,5 0,0 z" id="path3585" inkscape:connector-curvature="0" style="fill-rule:evenodd;stroke:#000000;stroke-width:1pt" transform="matrix(-0.4,0,0,-0.4,-4,0)"/>
    </marker>
    <marker id="Arrow1Mend-24" orient="auto" refX="0" refY="0" style="overflow:visible">
      <path d="M 0,0 5,-5 -12.5,0 5,5 0,0 z" id="path3776-54" inkscape:connector-curvature="0" style="fill-rule:evenodd;stroke:#000000;stroke-width:1pt" transform="matrix(-0.4,0,0,-0.4,-4,0)"/>
    </marker>
    <marker id="marker3670" orient="auto" refX="0" refY="0" style="overflow:visible">
      <path d="M 0,0 5,-5 -12.5,0 5,5 0,0 z" id="path3672" inkscape:connector-curvature="0" style="fill-rule:evenodd;stroke:#000000;stroke-width:1pt" transform="matrix(-0.4,0,0,-0.4,-4,0)"/>
    </marker>
    <marker id="marker3674" orient="auto" refX="0" refY="0" style="overflow:visible">
      <path d="M 0,0 5,-5 -12.5,0 5,5 0,0 z" id="path3676" inkscape:connector-curvature="0" style="fill-rule:evenodd;stroke:#000000;stroke-width:1pt" transform="matrix(-0.4,0,0,-0.4,-4,0)"/>
    </marker>
    <marker id="Arrow1Mend-23" orient="auto" refX="0" refY="0" style="overflow:visible">
      <path d="M 0,0 5,-5 -12.5,0 5,5 0,0 z" id="path3776-01" inkscape:connector-curvature="0" style="fill-rule:evenodd;stroke:#000000;stroke-width:1pt" transform="matrix(-0.4,0,0,-0.4,-4,0)"/>
    </marker>
    <marker id="marker3670-4" orient="auto" refX="0" refY="0" style="overflow:visible">
      <path d="M 0,0 5,-5 -12.5,0 5,5 0,0 z" id="path3672-9" inkscape:connector-curvature="0" style="fill-rule:evenodd;stroke:#000000;stroke-width:1pt" transform="matrix(-0.4,0,0,-0.4,-4,0)"/>
    </marker>
    <marker id="marker3674-0" orient="auto" refX="0" refY="0" style="overflow:visible">
      <path d="M 0,0 5,-5 -12.5,0 5,5 0,0 z" id="path3676-1" inkscape:connector-curvature="0" style="fill-rule:evenodd;stroke:#000000;stroke-width:1pt" transform="matrix(-0.4,0,0,-0.4,-4,0)"/>
    </marker>
    <marker id="Arrow1Mend-96" orient="auto" refX="0" refY="0" style="overflow:visible">
      <path d="M 0,0 5,-5 -12.5,0 5,5 0,0 z" id="path3776-129" inkscape:connector-curvature="0" style="fill-rule:evenodd;stroke:#000000;stroke-width:1pt" transform="matrix(-0.4,0,0,-0.4,-4,0)"/>
    </marker>
    <marker id="marker3670-2" orient="auto" refX="0" refY="0" style="overflow:visible">
      <path d="M 0,0 5,-5 -12.5,0 5,5 0,0 z" id="path3672-3" inkscape:connector-curvature="0" style="fill-rule:evenodd;stroke:#000000;stroke-width:1pt" transform="matrix(-0.4,0,0,-0.4,-4,0)"/>
    </marker>
    <marker id="marker3674-6" orient="auto" refX="0" refY="0" style="overflow:visible">
      <path d="M 0,0 5,-5 -12.5,0 5,5 0,0 z" id="path3676-3" inkscape:connector-curvature="0" style="fill-rule:evenodd;stroke:#000000;stroke-width:1pt" transform="matrix(-0.4,0,0,-0.4,-4,0)"/>
    </marker>
    <marker id="Arrow1Mend-29" orient="auto" refX="0" refY="0" style="overflow:visible">
      <path d="M 0,0 5,-5 -12.5,0 5,5 0,0 z" id="path3776-55" inkscape:connector-curvature="0" style="fill-rule:evenodd;stroke:#000000;stroke-width:1pt" transform="matrix(-0.4,0,0,-0.4,-4,0)"/>
    </marker>
    <marker id="marker3867" orient="auto" refX="0" refY="0" style="overflow:visible">
      <path d="M 0,0 5,-5 -12.5,0 5,5 0,0 z" id="path3869" inkscape:connector-curvature="0" style="fill-rule:evenodd;stroke:#000000;stroke-width:1pt" transform="matrix(-0.4,0,0,-0.4,-4,0)"/>
    </marker>
    <marker id="marker3871" orient="auto" refX="0" refY="0" style="overflow:visible">
      <path d="M 0,0 5,-5 -12.5,0 5,5 0,0 z" id="path3873" inkscape:connector-curvature="0" style="fill-rule:evenodd;stroke:#000000;stroke-width:1pt" transform="matrix(-0.4,0,0,-0.4,-4,0)"/>
    </marker>
  </defs>
  <metadata id="metadata7">
    <rdf:RDF id="ID_PubliTool_N10539">
      <cc:Work id="ID_PubliTool_N1053B" rdf:about="">
        <dc:format id="ID_PubliTool_N1053E">image/svg+xml</dc:format>
        <dc:type id="ID_PubliTool_N10541" rdf:resource="http://purl.org/dc/dcmitype/StillImage"/>
        <dc:title id="ID_PubliTool_N10544"/>
      </cc:Work>
    </rdf:RDF>
  </metadata>
  <g transform="scale(0.7)"><rect height="240" id="rect2987" style="fill:#d0f28c;fill-opacity:0.99610895;fill-rule:nonzero;stroke:#000000;stroke-width:2;stroke-linecap:square;stroke-linejoin:round;stroke-miterlimit:4;stroke-opacity:1;stroke-dasharray:none;stroke-dashoffset:0" width="730" x="1" y="1"/>
  <text id="text4393-7-9-4" sodipodi:linespacing="125%" style="font-size:16px;font-style:normal;font-variant:normal;font-weight:normal;font-stretch:normal;text-align:end;line-height:125%;letter-spacing:0px;word-spacing:0px;writing-mode:lr-tb;text-anchor:end;fill:#000000;fill-opacity:1;stroke:none;font-family:Times New Roman;-inkscape-font-specification:Sans" x="975" xml:space="preserve" y="488.99997"><tspan id="tspan4395-9-8-3" x="975" y="488.99997"/></text>
  <text id="text2989-9-3-7-4" sodipodi:linespacing="125%" style="font-size:16px;font-style:normal;font-variant:normal;font-weight:normal;font-stretch:normal;text-align:center;line-height:125%;letter-spacing:0px;word-spacing:0px;writing-mode:lr-tb;text-anchor:middle;fill:#000000;fill-opacity:1;stroke:none;font-family:Times New Roman;-inkscape-font-specification:Sans" x="111" xml:space="preserve" y="831"><tspan id="tspan2991-9-7-6-8" x="111" y="831"/></text>
  <text id="text4393-7-9-4-0" sodipodi:linespacing="125%" style="font-size:16px;font-style:normal;font-variant:normal;font-weight:normal;font-stretch:normal;text-align:end;line-height:125%;letter-spacing:0px;word-spacing:0px;writing-mode:lr-tb;text-anchor:end;fill:#000000;fill-opacity:1;stroke:none;font-family:Times New Roman;-inkscape-font-specification:Sans" x="967" xml:space="preserve" y="482.99997"><tspan id="tspan4395-9-8-3-1" x="967" y="482.99997"/></text>
  <text id="text3311-8-9" sodipodi:linespacing="125%" style="font-size:16px;font-style:normal;font-variant:normal;font-weight:normal;font-stretch:normal;text-align:center;line-height:125%;letter-spacing:0px;word-spacing:0px;writing-mode:lr-tb;text-anchor:middle;fill:#000000;fill-opacity:1;stroke:none;font-family:Times New Roman;-inkscape-font-specification:Sans" x="361" xml:space="preserve" y="231"><tspan id="tspan3313-3-0" x="361" y="231">EtageTabP1</tspan></text>
  <path d="m 1.000007,61.00001 50,0" id="path2993-1-9-23-3-7" inkscape:connector-curvature="0" sodipodi:nodetypes="cc" style="fill:none;stroke:#000000;stroke-width:2;stroke-linecap:butt;stroke-linejoin:miter;stroke-miterlimit:4;stroke-opacity:1;stroke-dasharray:none;marker-end:url(#Arrow1Mend)"/>
  <path d="m 1.000007,101.00001 50,0" id="path2993-1-9-23-3-5-9" inkscape:connector-curvature="0" sodipodi:nodetypes="cc" style="fill:none;stroke:#000000;stroke-width:2;stroke-linecap:butt;stroke-linejoin:miter;stroke-miterlimit:4;stroke-opacity:1;stroke-dasharray:none;marker-end:url(#Arrow1Mend)"/>
  <path d="m 1.000007,141 50,0" id="path2993-1-9-23-3-2-8" inkscape:connector-curvature="0" sodipodi:nodetypes="cc" style="fill:none;stroke:#000000;stroke-width:2;stroke-linecap:butt;stroke-linejoin:miter;stroke-miterlimit:4;stroke-opacity:1;stroke-dasharray:none;marker-end:url(#Arrow1Mend)"/>
  <rect height="179.99998" id="rect2987-7-3-6-4-8-2" ry="0" style="fill:#aad400;fill-opacity:0.99610895;fill-rule:nonzero;stroke:#000000;stroke-width:2;stroke-linecap:square;stroke-linejoin:round;stroke-miterlimit:4;stroke-opacity:1;stroke-dasharray:none;stroke-dashoffset:0" width="120.00001" x="51" y="21.000032"/>
  <text id="text3311-8-99" sodipodi:linespacing="125%" style="font-size:16px;font-style:normal;font-variant:normal;font-weight:normal;font-stretch:normal;text-align:center;line-height:125%;letter-spacing:0px;word-spacing:0px;writing-mode:lr-tb;text-anchor:middle;fill:#000000;fill-opacity:1;stroke:none;font-family:Times New Roman;-inkscape-font-specification:Sans" x="111" xml:space="preserve" y="191"><tspan id="tspan3313-3-9" x="111" y="191">EtageP1</tspan></text>
  <text id="text4393-7-9-2-7-8-2-3-0" sodipodi:linespacing="125%" style="font-size:16px;font-style:normal;font-variant:normal;font-weight:normal;font-stretch:normal;text-align:end;line-height:125%;letter-spacing:0px;word-spacing:0px;writing-mode:lr-tb;text-anchor:end;fill:#000000;fill-opacity:1;stroke:none;font-family:Times New Roman;-inkscape-font-specification:Sans" x="161" xml:space="preserve" y="60.999996"><tspan id="tspan4395-9-8-4-2-9-3-4-4" x="161" y="60.999996">kout</tspan></text>
  <text id="text4393-7-9-2-7-8-2-0-3-3" sodipodi:linespacing="125%" style="font-size:16px;font-style:normal;font-variant:normal;font-weight:normal;font-stretch:normal;text-align:end;line-height:125%;letter-spacing:0px;word-spacing:0px;writing-mode:lr-tb;text-anchor:end;fill:#000000;fill-opacity:1;stroke:none;font-family:Times New Roman;-inkscape-font-specification:Sans" x="161" xml:space="preserve" y="100.99999"><tspan id="tspan4395-9-8-4-2-9-3-7-1-2" x="161" y="100.99999">xout</tspan></text>
  <text id="text4393-7-9-2-7-8-2-7-9-2" sodipodi:linespacing="125%" style="font-size:16px;font-style:normal;font-variant:normal;font-weight:normal;font-stretch:normal;text-align:end;line-height:125%;letter-spacing:0px;word-spacing:0px;writing-mode:lr-tb;text-anchor:end;fill:#000000;fill-opacity:1;stroke:none;font-family:Times New Roman;-inkscape-font-specification:Sans" x="161" xml:space="preserve" y="141.00003"><tspan id="tspan4395-9-8-4-2-9-3-2-7-2" x="161" y="141.00003">yout</tspan></text>
  <text id="text4393-7-9-2-7-8-2-3-5-1" sodipodi:linespacing="125%" style="font-size:16px;font-style:normal;font-variant:normal;font-weight:normal;font-stretch:normal;text-align:start;line-height:125%;letter-spacing:0px;word-spacing:0px;writing-mode:lr-tb;text-anchor:start;fill:#000000;fill-opacity:1;stroke:none;font-family:Times New Roman;-inkscape-font-specification:Sans" x="32.953125" xml:space="preserve" y="60.999996"><tspan id="tspan4395-9-8-4-2-9-3-4-6-3" style="text-align:start;text-anchor:start" x="61" y="60.999996">kin</tspan></text>
  <text id="text4393-7-9-2-7-8-2-0-3-1-8" sodipodi:linespacing="125%" style="font-size:16px;font-style:normal;font-variant:normal;font-weight:normal;font-stretch:normal;text-align:start;line-height:125%;letter-spacing:0px;word-spacing:0px;writing-mode:lr-tb;text-anchor:start;fill:#000000;fill-opacity:1;stroke:none;font-family:Times New Roman;-inkscape-font-specification:Sans" x="32.789062" xml:space="preserve" y="100.99999"><tspan id="tspan4395-9-8-4-2-9-3-7-1-8-4" style="text-align:start;text-anchor:start" x="61" y="100.99999">xin</tspan></text>
  <text id="text4393-7-9-2-7-8-2-7-9-0-6" sodipodi:linespacing="125%" style="font-size:16px;font-style:normal;font-variant:normal;font-weight:normal;font-stretch:normal;text-align:start;line-height:125%;letter-spacing:0px;word-spacing:0px;writing-mode:lr-tb;text-anchor:start;fill:#000000;fill-opacity:1;stroke:none;font-family:Times New Roman;-inkscape-font-specification:Sans" x="32.84375" xml:space="preserve" y="141.00003"><tspan id="tspan4395-9-8-4-2-9-3-2-7-4-7" style="text-align:start;text-anchor:start" x="61" y="141.00003">yin</tspan></text>
  <path d="m 171.00001,61.00003 50,0" id="path2993-1-9-23-3-7-5" inkscape:connector-curvature="0" sodipodi:nodetypes="cc" style="fill:none;stroke:#000000;stroke-width:2;stroke-linecap:butt;stroke-linejoin:miter;stroke-miterlimit:4;stroke-opacity:1;stroke-dasharray:none;marker-end:url(#Arrow1Mend)"/>
  <path d="m 171.00001,101.00003 50,0" id="path2993-1-9-23-3-5-9-7" inkscape:connector-curvature="0" sodipodi:nodetypes="cc" style="fill:none;stroke:#000000;stroke-width:2;stroke-linecap:butt;stroke-linejoin:miter;stroke-miterlimit:4;stroke-opacity:1;stroke-dasharray:none;marker-end:url(#Arrow1Mend)"/>
  <path d="m 171.00001,141.00002 50,0" id="path2993-1-9-23-3-2-8-6" inkscape:connector-curvature="0" sodipodi:nodetypes="cc" style="fill:none;stroke:#000000;stroke-width:2;stroke-linecap:butt;stroke-linejoin:miter;stroke-miterlimit:4;stroke-opacity:1;stroke-dasharray:none;marker-end:url(#Arrow1Mend)"/>
  <rect height="179.99998" id="rect2987-7-3-6-4-8-2-2" ry="0" style="fill:#aad400;fill-opacity:0.99610895;fill-rule:nonzero;stroke:#000000;stroke-width:2;stroke-linecap:square;stroke-linejoin:round;stroke-miterlimit:4;stroke-opacity:1;stroke-dasharray:none;stroke-dashoffset:0" width="120.00001" x="221" y="21.000063"/>
  <text id="text3311-8-99-1" sodipodi:linespacing="125%" style="font-size:16px;font-style:normal;font-variant:normal;font-weight:normal;font-stretch:normal;text-align:center;line-height:125%;letter-spacing:0px;word-spacing:0px;writing-mode:lr-tb;text-anchor:middle;fill:#000000;fill-opacity:1;stroke:none;font-family:Times New Roman;-inkscape-font-specification:Sans" x="281" xml:space="preserve" y="191"><tspan id="tspan3313-3-9-3" x="281" y="191">EtageP1</tspan></text>
  <text id="text4393-7-9-2-7-8-2-3-0-0" sodipodi:linespacing="125%" style="font-size:16px;font-style:normal;font-variant:normal;font-weight:normal;font-stretch:normal;text-align:end;line-height:125%;letter-spacing:0px;word-spacing:0px;writing-mode:lr-tb;text-anchor:end;fill:#000000;fill-opacity:1;stroke:none;font-family:Times New Roman;-inkscape-font-specification:Sans" x="331" xml:space="preserve" y="61.000027"><tspan id="tspan4395-9-8-4-2-9-3-4-4-4" x="331" y="61.000027">kout</tspan></text>
  <text id="text4393-7-9-2-7-8-2-0-3-3-5" sodipodi:linespacing="125%" style="font-size:16px;font-style:normal;font-variant:normal;font-weight:normal;font-stretch:normal;text-align:end;line-height:125%;letter-spacing:0px;word-spacing:0px;writing-mode:lr-tb;text-anchor:end;fill:#000000;fill-opacity:1;stroke:none;font-family:Times New Roman;-inkscape-font-specification:Sans" x="331" xml:space="preserve" y="101.00004"><tspan id="tspan4395-9-8-4-2-9-3-7-1-2-2" x="331" y="101.00004">xout</tspan></text>
  <text id="text4393-7-9-2-7-8-2-7-9-2-6" sodipodi:linespacing="125%" style="font-size:16px;font-style:normal;font-variant:normal;font-weight:normal;font-stretch:normal;text-align:end;line-height:125%;letter-spacing:0px;word-spacing:0px;writing-mode:lr-tb;text-anchor:end;fill:#000000;fill-opacity:1;stroke:none;font-family:Times New Roman;-inkscape-font-specification:Sans" x="331" xml:space="preserve" y="141.00003"><tspan id="tspan4395-9-8-4-2-9-3-2-7-2-0" x="331" y="141.00003">yout</tspan></text>
  <text id="text4393-7-9-2-7-8-2-3-5-1-6" sodipodi:linespacing="125%" style="font-size:16px;font-style:normal;font-variant:normal;font-weight:normal;font-stretch:normal;text-align:start;line-height:125%;letter-spacing:0px;word-spacing:0px;writing-mode:lr-tb;text-anchor:start;fill:#000000;fill-opacity:1;stroke:none;font-family:Times New Roman;-inkscape-font-specification:Sans" x="202.95312" xml:space="preserve" y="61.000027"><tspan id="tspan4395-9-8-4-2-9-3-4-6-3-8" style="text-align:start;text-anchor:start" x="231" y="61.000027">kin</tspan></text>
  <text id="text4393-7-9-2-7-8-2-0-3-1-8-1" sodipodi:linespacing="125%" style="font-size:16px;font-style:normal;font-variant:normal;font-weight:normal;font-stretch:normal;text-align:start;line-height:125%;letter-spacing:0px;word-spacing:0px;writing-mode:lr-tb;text-anchor:start;fill:#000000;fill-opacity:1;stroke:none;font-family:Times New Roman;-inkscape-font-specification:Sans" x="202.78906" xml:space="preserve" y="101.00004"><tspan id="tspan4395-9-8-4-2-9-3-7-1-8-4-8" style="text-align:start;text-anchor:start" x="231" y="101.00004">xin</tspan></text>
  <text id="text4393-7-9-2-7-8-2-7-9-0-6-8" sodipodi:linespacing="125%" style="font-size:16px;font-style:normal;font-variant:normal;font-weight:normal;font-stretch:normal;text-align:start;line-height:125%;letter-spacing:0px;word-spacing:0px;writing-mode:lr-tb;text-anchor:start;fill:#000000;fill-opacity:1;stroke:none;font-family:Times New Roman;-inkscape-font-specification:Sans" x="202.84375" xml:space="preserve" y="141.00003"><tspan id="tspan4395-9-8-4-2-9-3-2-7-4-7-9" style="text-align:start;text-anchor:start" x="231" y="141.00003">yin</tspan></text>
  <path d="m 341.00002,61.00003 50,0" id="path2993-1-9-23-3-7-1" inkscape:connector-curvature="0" sodipodi:nodetypes="cc" style="fill:none;stroke:#000000;stroke-width:2;stroke-linecap:butt;stroke-linejoin:miter;stroke-miterlimit:4;stroke-opacity:1;stroke-dasharray:none;marker-end:url(#Arrow1Mend)"/>
  <path d="m 341.00002,101.00003 50,0" id="path2993-1-9-23-3-5-9-6" inkscape:connector-curvature="0" sodipodi:nodetypes="cc" style="fill:none;stroke:#000000;stroke-width:2;stroke-linecap:butt;stroke-linejoin:miter;stroke-miterlimit:4;stroke-opacity:1;stroke-dasharray:none;marker-end:url(#Arrow1Mend)"/>
  <path d="m 341.00002,141.00002 50,0" id="path2993-1-9-23-3-2-8-7" inkscape:connector-curvature="0" sodipodi:nodetypes="cc" style="fill:none;stroke:#000000;stroke-width:2;stroke-linecap:butt;stroke-linejoin:miter;stroke-miterlimit:4;stroke-opacity:1;stroke-dasharray:none;marker-end:url(#Arrow1Mend)"/>
  <rect height="179.99998" id="rect2987-7-3-6-4-8-2-8" ry="0" style="fill:#aad400;fill-opacity:0.99610895;fill-rule:nonzero;stroke:#000000;stroke-width:2;stroke-linecap:square;stroke-linejoin:round;stroke-miterlimit:4;stroke-opacity:1;stroke-dasharray:none;stroke-dashoffset:0" width="120.00001" x="391" y="21.000063"/>
  <text id="text3311-8-99-16" sodipodi:linespacing="125%" style="font-size:16px;font-style:normal;font-variant:normal;font-weight:normal;font-stretch:normal;text-align:center;line-height:125%;letter-spacing:0px;word-spacing:0px;writing-mode:lr-tb;text-anchor:middle;fill:#000000;fill-opacity:1;stroke:none;font-family:Times New Roman;-inkscape-font-specification:Sans" x="451" xml:space="preserve" y="191"><tspan id="tspan3313-3-9-4" x="451" y="191">EtageP1</tspan></text>
  <text id="text4393-7-9-2-7-8-2-3-0-5" sodipodi:linespacing="125%" style="font-size:16px;font-style:normal;font-variant:normal;font-weight:normal;font-stretch:normal;text-align:end;line-height:125%;letter-spacing:0px;word-spacing:0px;writing-mode:lr-tb;text-anchor:end;fill:#000000;fill-opacity:1;stroke:none;font-family:Times New Roman;-inkscape-font-specification:Sans" x="501" xml:space="preserve" y="61.000027"><tspan id="tspan4395-9-8-4-2-9-3-4-4-9" x="501" y="61.000027">kout</tspan></text>
  <text id="text4393-7-9-2-7-8-2-0-3-3-7" sodipodi:linespacing="125%" style="font-size:16px;font-style:normal;font-variant:normal;font-weight:normal;font-stretch:normal;text-align:end;line-height:125%;letter-spacing:0px;word-spacing:0px;writing-mode:lr-tb;text-anchor:end;fill:#000000;fill-opacity:1;stroke:none;font-family:Times New Roman;-inkscape-font-specification:Sans" x="501" xml:space="preserve" y="101.00004"><tspan id="tspan4395-9-8-4-2-9-3-7-1-2-5" x="501" y="101.00004">xout</tspan></text>
  <text id="text4393-7-9-2-7-8-2-7-9-2-3" sodipodi:linespacing="125%" style="font-size:16px;font-style:normal;font-variant:normal;font-weight:normal;font-stretch:normal;text-align:end;line-height:125%;letter-spacing:0px;word-spacing:0px;writing-mode:lr-tb;text-anchor:end;fill:#000000;fill-opacity:1;stroke:none;font-family:Times New Roman;-inkscape-font-specification:Sans" x="501" xml:space="preserve" y="141.00003"><tspan id="tspan4395-9-8-4-2-9-3-2-7-2-2" x="501" y="141.00003">yout</tspan></text>
  <text id="text4393-7-9-2-7-8-2-3-5-1-8" sodipodi:linespacing="125%" style="font-size:16px;font-style:normal;font-variant:normal;font-weight:normal;font-stretch:normal;text-align:start;line-height:125%;letter-spacing:0px;word-spacing:0px;writing-mode:lr-tb;text-anchor:start;fill:#000000;fill-opacity:1;stroke:none;font-family:Times New Roman;-inkscape-font-specification:Sans" x="372.95312" xml:space="preserve" y="61.000027"><tspan id="tspan4395-9-8-4-2-9-3-4-6-3-1" style="text-align:start;text-anchor:start" x="401" y="61.000027">kin</tspan></text>
  <text id="text4393-7-9-2-7-8-2-0-3-1-8-4" sodipodi:linespacing="125%" style="font-size:16px;font-style:normal;font-variant:normal;font-weight:normal;font-stretch:normal;text-align:start;line-height:125%;letter-spacing:0px;word-spacing:0px;writing-mode:lr-tb;text-anchor:start;fill:#000000;fill-opacity:1;stroke:none;font-family:Times New Roman;-inkscape-font-specification:Sans" x="372.78906" xml:space="preserve" y="101.00004"><tspan id="tspan4395-9-8-4-2-9-3-7-1-8-4-6" style="text-align:start;text-anchor:start" x="401" y="101.00004">xin</tspan></text>
  <text id="text4393-7-9-2-7-8-2-7-9-0-6-9" sodipodi:linespacing="125%" style="font-size:16px;font-style:normal;font-variant:normal;font-weight:normal;font-stretch:normal;text-align:start;line-height:125%;letter-spacing:0px;word-spacing:0px;writing-mode:lr-tb;text-anchor:start;fill:#000000;fill-opacity:1;stroke:none;font-family:Times New Roman;-inkscape-font-specification:Sans" x="372.84375" xml:space="preserve" y="141.00003"><tspan id="tspan4395-9-8-4-2-9-3-2-7-4-7-5" style="text-align:start;text-anchor:start" x="401" y="141.00003">yin</tspan></text>
  <path d="m 511.00004,61.00003 50,0" id="path2993-1-9-23-3-7-59" inkscape:connector-curvature="0" sodipodi:nodetypes="cc" style="fill:none;stroke:#000000;stroke-width:2;stroke-linecap:butt;stroke-linejoin:miter;stroke-miterlimit:4;stroke-opacity:1;stroke-dasharray:none;marker-end:url(#Arrow1Mend)"/>
  <path d="m 511.00004,101.00003 50,0" id="path2993-1-9-23-3-5-9-5" inkscape:connector-curvature="0" sodipodi:nodetypes="cc" style="fill:none;stroke:#000000;stroke-width:2;stroke-linecap:butt;stroke-linejoin:miter;stroke-miterlimit:4;stroke-opacity:1;stroke-dasharray:none;marker-end:url(#Arrow1Mend)"/>
  <path d="m 511.00004,141.00002 50,0" id="path2993-1-9-23-3-2-8-1" inkscape:connector-curvature="0" sodipodi:nodetypes="cc" style="fill:none;stroke:#000000;stroke-width:2;stroke-linecap:butt;stroke-linejoin:miter;stroke-miterlimit:4;stroke-opacity:1;stroke-dasharray:none;marker-end:url(#Arrow1Mend)"/>
  <rect height="179.99998" id="rect2987-7-3-6-4-8-2-6" ry="0" style="fill:#aad400;fill-opacity:0.99610895;fill-rule:nonzero;stroke:#000000;stroke-width:2;stroke-linecap:square;stroke-linejoin:round;stroke-miterlimit:4;stroke-opacity:1;stroke-dasharray:none;stroke-dashoffset:0" width="120.00001" x="561" y="21.000063"/>
  <text id="text3311-8-99-5" sodipodi:linespacing="125%" style="font-size:16px;font-style:normal;font-variant:normal;font-weight:normal;font-stretch:normal;text-align:center;line-height:125%;letter-spacing:0px;word-spacing:0px;writing-mode:lr-tb;text-anchor:middle;fill:#000000;fill-opacity:1;stroke:none;font-family:Times New Roman;-inkscape-font-specification:Sans" x="621.00006" xml:space="preserve" y="191"><tspan id="tspan3313-3-9-45" x="621.00006" y="191">EtageP1</tspan></text>
  <text id="text4393-7-9-2-7-8-2-3-0-9" sodipodi:linespacing="125%" style="font-size:16px;font-style:normal;font-variant:normal;font-weight:normal;font-stretch:normal;text-align:end;line-height:125%;letter-spacing:0px;word-spacing:0px;writing-mode:lr-tb;text-anchor:end;fill:#000000;fill-opacity:1;stroke:none;font-family:Times New Roman;-inkscape-font-specification:Sans" x="671.00006" xml:space="preserve" y="61.000027"><tspan id="tspan4395-9-8-4-2-9-3-4-4-94" x="671.00006" y="61.000027">kout</tspan></text>
  <text id="text4393-7-9-2-7-8-2-0-3-3-8" sodipodi:linespacing="125%" style="font-size:16px;font-style:normal;font-variant:normal;font-weight:normal;font-stretch:normal;text-align:end;line-height:125%;letter-spacing:0px;word-spacing:0px;writing-mode:lr-tb;text-anchor:end;fill:#000000;fill-opacity:1;stroke:none;font-family:Times New Roman;-inkscape-font-specification:Sans" x="671.00006" xml:space="preserve" y="101.00004"><tspan id="tspan4395-9-8-4-2-9-3-7-1-2-58" x="671.00006" y="101.00004">xout</tspan></text>
  <text id="text4393-7-9-2-7-8-2-7-9-2-2" sodipodi:linespacing="125%" style="font-size:16px;font-style:normal;font-variant:normal;font-weight:normal;font-stretch:normal;text-align:end;line-height:125%;letter-spacing:0px;word-spacing:0px;writing-mode:lr-tb;text-anchor:end;fill:#000000;fill-opacity:1;stroke:none;font-family:Times New Roman;-inkscape-font-specification:Sans" x="671.00006" xml:space="preserve" y="141.00003"><tspan id="tspan4395-9-8-4-2-9-3-2-7-2-5" x="671.00006" y="141.00003">yout</tspan></text>
  <text id="text4393-7-9-2-7-8-2-3-5-1-1" sodipodi:linespacing="125%" style="font-size:16px;font-style:normal;font-variant:normal;font-weight:normal;font-stretch:normal;text-align:start;line-height:125%;letter-spacing:0px;word-spacing:0px;writing-mode:lr-tb;text-anchor:start;fill:#000000;fill-opacity:1;stroke:none;font-family:Times New Roman;-inkscape-font-specification:Sans" x="542.95312" xml:space="preserve" y="61.000027"><tspan id="tspan4395-9-8-4-2-9-3-4-6-3-6" style="text-align:start;text-anchor:start" x="571" y="61.000027">kin</tspan></text>
  <text id="text4393-7-9-2-7-8-2-0-3-1-8-3" sodipodi:linespacing="125%" style="font-size:16px;font-style:normal;font-variant:normal;font-weight:normal;font-stretch:normal;text-align:start;line-height:125%;letter-spacing:0px;word-spacing:0px;writing-mode:lr-tb;text-anchor:start;fill:#000000;fill-opacity:1;stroke:none;font-family:Times New Roman;-inkscape-font-specification:Sans" x="542.78906" xml:space="preserve" y="101.00004"><tspan id="tspan4395-9-8-4-2-9-3-7-1-8-4-1" style="text-align:start;text-anchor:start" x="571" y="101.00004">xin</tspan></text>
  <text id="text4393-7-9-2-7-8-2-7-9-0-6-4" sodipodi:linespacing="125%" style="font-size:16px;font-style:normal;font-variant:normal;font-weight:normal;font-stretch:normal;text-align:start;line-height:125%;letter-spacing:0px;word-spacing:0px;writing-mode:lr-tb;text-anchor:start;fill:#000000;fill-opacity:1;stroke:none;font-family:Times New Roman;-inkscape-font-specification:Sans" x="542.84375" xml:space="preserve" y="141.00003"><tspan id="tspan4395-9-8-4-2-9-3-2-7-4-7-90" style="text-align:start;text-anchor:start" x="571" y="141.00003">yin</tspan></text>
  <path d="m 681,60.99999 50,0" id="path2993-1-9-23-3-86-8" inkscape:connector-curvature="0" sodipodi:nodetypes="cc" style="fill:none;stroke:#000000;stroke-width:2;stroke-linecap:butt;stroke-linejoin:miter;stroke-miterlimit:4;stroke-opacity:1;stroke-dasharray:none;marker-end:url(#Arrow1Mend)"/>
  <path d="m 681,100.99999 50,0" id="path2993-1-9-23-3-5-8-0" inkscape:connector-curvature="0" sodipodi:nodetypes="cc" style="fill:none;stroke:#000000;stroke-width:2;stroke-linecap:butt;stroke-linejoin:miter;stroke-miterlimit:4;stroke-opacity:1;stroke-dasharray:none;marker-end:url(#Arrow1Mend)"/>
  <path d="m 681,141.00002 50,0" id="path2993-1-9-23-3-2-2-9" inkscape:connector-curvature="0" sodipodi:nodetypes="cc" style="fill:none;stroke:#000000;stroke-width:2;stroke-linecap:butt;stroke-linejoin:miter;stroke-miterlimit:4;stroke-opacity:1;stroke-dasharray:none;marker-end:url(#Arrow1Mend)"/>
</g></svg>