<?xml version="1.0" encoding="UTF-8" standalone="no"?>
<!-- Created with Inkscape (http://www.inkscape.org/) -->

<svg
   xmlns:dc="http://purl.org/dc/elements/1.1/"
   xmlns:cc="http://creativecommons.org/ns#"
   xmlns:rdf="http://www.w3.org/1999/02/22-rdf-syntax-ns#"
   xmlns:svg="http://www.w3.org/2000/svg"
   xmlns="http://www.w3.org/2000/svg"
   xmlns:sodipodi="http://sodipodi.sourceforge.net/DTD/sodipodi-0.dtd"
   xmlns:inkscape="http://www.inkscape.org/namespaces/inkscape"
   width="411.27664"
   height="241.38988"
   id="svg2"
   version="1.1"
   inkscape:version="0.48.4 r9939"
   sodipodi:docname="ModuleStateGraph.svg">
  <defs
     id="defs4">
    <marker
       inkscape:stockid="Arrow2Lend"
       orient="auto"
       refY="0"
       refX="0"
       id="Arrow2Lend"
       style="overflow:visible">
      <path
         id="path3818"
         style="fill-rule:evenodd;stroke-width:0.625;stroke-linejoin:round"
         d="M 8.7185878,4.0337352 -2.2072895,0.01601326 8.7185884,-4.0017078 c -1.7454984,2.3720609 -1.7354408,5.6174519 -6e-7,8.035443 z"
         transform="matrix(-1.1,0,0,-1.1,-1.1,0)"
         inkscape:connector-curvature="0" />
    </marker>
    <marker
       inkscape:stockid="Arrow2Lend"
       orient="auto"
       refY="0"
       refX="0"
       id="Arrow2Lend-2"
       style="overflow:visible">
      <path
         inkscape:connector-curvature="0"
         id="path3818-3"
         style="fill-rule:evenodd;stroke-width:0.625;stroke-linejoin:round"
         d="M 8.7185878,4.0337352 -2.2072895,0.01601326 8.7185884,-4.0017078 c -1.7454984,2.3720609 -1.7354408,5.6174519 -6e-7,8.035443 z"
         transform="matrix(-1.1,0,0,-1.1,-1.1,0)" />
    </marker>
    <marker
       inkscape:stockid="Arrow2Lend"
       orient="auto"
       refY="0"
       refX="0"
       id="Arrow2Lend-7"
       style="overflow:visible">
      <path
         id="path3818-5"
         style="fill-rule:evenodd;stroke-width:0.625;stroke-linejoin:round"
         d="M 8.7185878,4.0337352 -2.2072895,0.01601326 8.7185884,-4.0017078 c -1.7454984,2.3720609 -1.7354408,5.6174519 -6e-7,8.035443 z"
         transform="matrix(-1.1,0,0,-1.1,-1.1,0)"
         inkscape:connector-curvature="0" />
    </marker>
    <marker
       inkscape:stockid="Arrow2Lend"
       orient="auto"
       refY="0"
       refX="0"
       id="Arrow2Lend-24"
       style="overflow:visible">
      <path
         id="path3818-7"
         style="fill-rule:evenodd;stroke-width:0.625;stroke-linejoin:round"
         d="M 8.7185878,4.0337352 -2.2072895,0.01601326 8.7185884,-4.0017078 c -1.7454984,2.3720609 -1.7354408,5.6174519 -6e-7,8.035443 z"
         transform="matrix(-1.1,0,0,-1.1,-1.1,0)"
         inkscape:connector-curvature="0" />
    </marker>
    <marker
       inkscape:stockid="Arrow2Lend"
       orient="auto"
       refY="0"
       refX="0"
       id="Arrow2Lend-0"
       style="overflow:visible">
      <path
         id="path3818-30"
         style="fill-rule:evenodd;stroke-width:0.625;stroke-linejoin:round"
         d="M 8.7185878,4.0337352 -2.2072895,0.01601326 8.7185884,-4.0017078 c -1.7454984,2.3720609 -1.7354408,5.6174519 -6e-7,8.035443 z"
         transform="matrix(-1.1,0,0,-1.1,-1.1,0)"
         inkscape:connector-curvature="0" />
    </marker>
    <marker
       inkscape:stockid="Arrow2Lend"
       orient="auto"
       refY="0"
       refX="0"
       id="Arrow2Lend-9"
       style="overflow:visible">
      <path
         id="path3818-8"
         style="fill-rule:evenodd;stroke-width:0.625;stroke-linejoin:round"
         d="M 8.7185878,4.0337352 -2.2072895,0.01601326 8.7185884,-4.0017078 c -1.7454984,2.3720609 -1.7354408,5.6174519 -6e-7,8.035443 z"
         transform="matrix(-1.1,0,0,-1.1,-1.1,0)"
         inkscape:connector-curvature="0" />
    </marker>
    <marker
       inkscape:stockid="Arrow2Lend"
       orient="auto"
       refY="0"
       refX="0"
       id="Arrow2Lend-22"
       style="overflow:visible">
      <path
         id="path3818-52"
         style="fill-rule:evenodd;stroke-width:0.625;stroke-linejoin:round"
         d="M 8.7185878,4.0337352 -2.2072895,0.01601326 8.7185884,-4.0017078 c -1.7454984,2.3720609 -1.7354408,5.6174519 -6e-7,8.035443 z"
         transform="matrix(-1.1,0,0,-1.1,-1.1,0)"
         inkscape:connector-curvature="0" />
    </marker>
    <marker
       inkscape:stockid="Arrow2Lend"
       orient="auto"
       refY="0"
       refX="0"
       id="Arrow2Lend-6"
       style="overflow:visible">
      <path
         id="path3818-89"
         style="fill-rule:evenodd;stroke-width:0.625;stroke-linejoin:round"
         d="M 8.7185878,4.0337352 -2.2072895,0.01601326 8.7185884,-4.0017078 c -1.7454984,2.3720609 -1.7354408,5.6174519 -6e-7,8.035443 z"
         transform="matrix(-1.1,0,0,-1.1,-1.1,0)"
         inkscape:connector-curvature="0" />
    </marker>
    <marker
       inkscape:stockid="Arrow2Lend"
       orient="auto"
       refY="0"
       refX="0"
       id="Arrow2Lend-5"
       style="overflow:visible">
      <path
         id="path3818-1"
         style="fill-rule:evenodd;stroke-width:0.625;stroke-linejoin:round"
         d="M 8.7185878,4.0337352 -2.2072895,0.01601326 8.7185884,-4.0017078 c -1.7454984,2.3720609 -1.7354408,5.6174519 -6e-7,8.035443 z"
         transform="matrix(-1.1,0,0,-1.1,-1.1,0)"
         inkscape:connector-curvature="0" />
    </marker>
    <marker
       inkscape:stockid="Arrow2Lend"
       orient="auto"
       refY="0"
       refX="0"
       id="Arrow2Lend-67"
       style="overflow:visible">
      <path
         id="path3818-74"
         style="fill-rule:evenodd;stroke-width:0.625;stroke-linejoin:round"
         d="M 8.7185878,4.0337352 -2.2072895,0.01601326 8.7185884,-4.0017078 c -1.7454984,2.3720609 -1.7354408,5.6174519 -6e-7,8.035443 z"
         transform="matrix(-1.1,0,0,-1.1,-1.1,0)"
         inkscape:connector-curvature="0" />
    </marker>
    <marker
       inkscape:stockid="Arrow2Lend"
       orient="auto"
       refY="0"
       refX="0"
       id="marker3043"
       style="overflow:visible">
      <path
         id="path3045"
         style="fill-rule:evenodd;stroke-width:0.625;stroke-linejoin:round"
         d="M 8.7185878,4.0337352 -2.2072895,0.01601326 8.7185884,-4.0017078 c -1.7454984,2.3720609 -1.7354408,5.6174519 -6e-7,8.035443 z"
         transform="matrix(-1.1,0,0,-1.1,-1.1,0)"
         inkscape:connector-curvature="0" />
    </marker>
    <marker
       inkscape:stockid="Arrow2Lend"
       orient="auto"
       refY="0"
       refX="0"
       id="Arrow2Lend-60"
       style="overflow:visible">
      <path
         id="path3818-12"
         style="fill-rule:evenodd;stroke-width:0.625;stroke-linejoin:round"
         d="M 8.7185878,4.0337352 -2.2072895,0.01601326 8.7185884,-4.0017078 c -1.7454984,2.3720609 -1.7354408,5.6174519 -6e-7,8.035443 z"
         transform="matrix(-1.1,0,0,-1.1,-1.1,0)"
         inkscape:connector-curvature="0" />
    </marker>
    <marker
       inkscape:stockid="Arrow2Lend"
       orient="auto"
       refY="0"
       refX="0"
       id="Arrow2Lend-58"
       style="overflow:visible">
      <path
         id="path3818-31"
         style="fill-rule:evenodd;stroke-width:0.625;stroke-linejoin:round"
         d="M 8.7185878,4.0337352 -2.2072895,0.01601326 8.7185884,-4.0017078 c -1.7454984,2.3720609 -1.7354408,5.6174519 -6e-7,8.035443 z"
         transform="matrix(-1.1,0,0,-1.1,-1.1,0)"
         inkscape:connector-curvature="0" />
    </marker>
    <marker
       inkscape:stockid="Arrow2Lend"
       orient="auto"
       refY="0"
       refX="0"
       id="Arrow2Lend-3"
       style="overflow:visible">
      <path
         id="path3818-79"
         style="fill-rule:evenodd;stroke-width:0.625;stroke-linejoin:round"
         d="M 8.7185878,4.0337352 -2.2072895,0.01601326 8.7185884,-4.0017078 c -1.7454984,2.3720609 -1.7354408,5.6174519 -6e-7,8.035443 z"
         transform="matrix(-1.1,0,0,-1.1,-1.1,0)"
         inkscape:connector-curvature="0" />
    </marker>
    <marker
       inkscape:stockid="Arrow2Lend"
       orient="auto"
       refY="0"
       refX="0"
       id="Arrow2Lend-78"
       style="overflow:visible">
      <path
         id="path3818-37"
         style="fill-rule:evenodd;stroke-width:0.625;stroke-linejoin:round"
         d="M 8.7185878,4.0337352 -2.2072895,0.01601326 8.7185884,-4.0017078 c -1.7454984,2.3720609 -1.7354408,5.6174519 -6e-7,8.035443 z"
         transform="matrix(-1.1,0,0,-1.1,-1.1,0)"
         inkscape:connector-curvature="0" />
    </marker>
    <marker
       inkscape:stockid="Arrow2Lend"
       orient="auto"
       refY="0"
       refX="0"
       id="Arrow2Lend-98"
       style="overflow:visible">
      <path
         id="path3818-2"
         style="fill-rule:evenodd;stroke-width:0.625;stroke-linejoin:round"
         d="M 8.7185878,4.0337352 -2.2072895,0.01601326 8.7185884,-4.0017078 c -1.7454984,2.3720609 -1.7354408,5.6174519 -6e-7,8.035443 z"
         transform="matrix(-1.1,0,0,-1.1,-1.1,0)"
         inkscape:connector-curvature="0" />
    </marker>
    <marker
       inkscape:stockid="Arrow2Lend"
       orient="auto"
       refY="0"
       refX="0"
       id="marker3106"
       style="overflow:visible">
      <path
         id="path3108"
         style="fill-rule:evenodd;stroke-width:0.625;stroke-linejoin:round"
         d="M 8.7185878,4.0337352 -2.2072895,0.01601326 8.7185884,-4.0017078 c -1.7454984,2.3720609 -1.7354408,5.6174519 -6e-7,8.035443 z"
         transform="matrix(-1.1,0,0,-1.1,-1.1,0)"
         inkscape:connector-curvature="0" />
    </marker>
    <marker
       inkscape:stockid="Arrow2Lend"
       orient="auto"
       refY="0"
       refX="0"
       id="Arrow2Lend-71"
       style="overflow:visible">
      <path
         id="path3818-38"
         style="fill-rule:evenodd;stroke-width:0.625;stroke-linejoin:round"
         d="M 8.7185878,4.0337352 -2.2072895,0.01601326 8.7185884,-4.0017078 c -1.7454984,2.3720609 -1.7354408,5.6174519 -6e-7,8.035443 z"
         transform="matrix(-1.1,0,0,-1.1,-1.1,0)"
         inkscape:connector-curvature="0" />
    </marker>
  </defs>
  <sodipodi:namedview
     id="base"
     pagecolor="#ffffff"
     bordercolor="#666666"
     borderopacity="1.0"
     inkscape:pageopacity="0.0"
     inkscape:pageshadow="2"
     inkscape:zoom="1.4281275"
     inkscape:cx="69.772348"
     inkscape:cy="122.30965"
     inkscape:document-units="px"
     inkscape:current-layer="layer1"
     showgrid="true"
     inkscape:window-width="1421"
     inkscape:window-height="830"
     inkscape:window-x="20"
     inkscape:window-y="118"
     inkscape:window-maximized="0"
     fit-margin-top="5"
     fit-margin-right="5"
     fit-margin-bottom="5"
     fit-margin-left="5"
     inkscape:snap-grids="true"
     showguides="true"
     inkscape:guide-bbox="true">
    <inkscape:grid
       type="xygrid"
       id="grid2985"
       empspacing="5"
       visible="true"
       enabled="true"
       snapvisiblegridlinesonly="true"
       originx="326.85996px"
       originy="-443.07761px" />
  </sodipodi:namedview>
  <metadata
     id="metadata7">
    <rdf:RDF>
      <cc:Work
         rdf:about="">
        <dc:format>image/svg+xml</dc:format>
        <dc:type
           rdf:resource="http://purl.org/dc/dcmitype/StillImage" />
        <dc:title />
      </cc:Work>
    </rdf:RDF>
  </metadata>
  <g
     inkscape:label="Layer 1"
     inkscape:groupmode="layer"
     id="layer1"
     transform="translate(326.85996,-367.89465)">
    <path
       transform="translate(-401.2079,11.032469)"
       sodipodi:type="arc"
       style="color:#000000;fill:none;stroke:#000000;stroke-width:1;stroke-opacity:1;marker:none;visibility:visible;display:inline;overflow:visible;enable-background:accumulate"
       id="path2993-8"
       sodipodi:cx="280"
       sodipodi:cy="392.36218"
       sodipodi:rx="80"
       sodipodi:ry="30"
       d="m 360,392.36218 c 0,16.56855 -35.81722,30 -80,30 -44.18278,0 -80,-13.43145 -80,-30 0,-16.56854 35.81722,-30 80,-30 44.18278,0 80,13.43146 80,30 z" />
    <text
       xml:space="preserve"
       style="font-size:14px;font-style:normal;font-variant:normal;font-weight:bold;font-stretch:normal;text-align:center;line-height:125%;letter-spacing:0px;word-spacing:0px;writing-mode:lr-tb;text-anchor:middle;fill:#000000;fill-opacity:1;stroke:none;font-family:Sans;-inkscape-font-specification:Sans Bold"
       x="-120"
       y="406.53546"
       id="text3763-1"
       sodipodi:linespacing="125%"><tspan
         sodipodi:role="line"
         id="tspan3765-7"
         x="-120"
         y="406.53546">idle</tspan></text>
    <path
       transform="translate(-281.28651,89.693846)"
       sodipodi:type="arc"
       style="color:#000000;fill:none;stroke:#000000;stroke-width:1;stroke-opacity:1;marker:none;visibility:visible;display:inline;overflow:visible;enable-background:accumulate"
       id="path2993-8-1"
       sodipodi:cx="280"
       sodipodi:cy="392.36218"
       sodipodi:rx="80"
       sodipodi:ry="30"
       d="m 360,392.36218 c 0,16.56855 -35.81722,30 -80,30 -44.18278,0 -80,-13.43145 -80,-30 0,-16.56854 35.81722,-30 80,-30 44.18278,0 80,13.43146 80,30 z" />
    <text
       xml:space="preserve"
       style="font-size:14px;font-style:normal;font-variant:normal;font-weight:bold;font-stretch:normal;text-align:center;line-height:125%;letter-spacing:0px;word-spacing:0px;writing-mode:lr-tb;text-anchor:middle;fill:#000000;fill-opacity:1;stroke:none;font-family:Sans;-inkscape-font-specification:Sans Bold"
       x="-0.078612998"
       y="485.19684"
       id="text3763-1-9"
       sodipodi:linespacing="125%"><tspan
         sodipodi:role="line"
         id="tspan3765-7-4"
         x="-0.078612998"
         y="485.19684">preactive</tspan></text>
    <path
       transform="translate(-521.28651,181.42235)"
       sodipodi:type="arc"
       style="color:#000000;fill:none;stroke:#000000;stroke-width:1;stroke-opacity:1;marker:none;visibility:visible;display:inline;overflow:visible;enable-background:accumulate"
       id="path2993-8-4"
       sodipodi:cx="280"
       sodipodi:cy="392.36218"
       sodipodi:rx="80"
       sodipodi:ry="30"
       d="m 360,392.36218 c 0,16.56855 -35.81722,30 -80,30 -44.18278,0 -80,-13.43145 -80,-30 0,-16.56854 35.81722,-30 80,-30 44.18278,0 80,13.43146 80,30 z" />
    <text
       xml:space="preserve"
       style="font-size:14px;font-style:normal;font-variant:normal;font-weight:bold;font-stretch:normal;text-align:center;line-height:125%;letter-spacing:0px;word-spacing:0px;writing-mode:lr-tb;text-anchor:middle;fill:#000000;fill-opacity:1;stroke:none;font-family:Sans;-inkscape-font-specification:Sans Bold"
       x="-240.07861"
       y="576.92535"
       id="text3763-1-90"
       sodipodi:linespacing="125%"><tspan
         sodipodi:role="line"
         id="tspan3765-7-7"
         x="-240.07861"
         y="576.92535">active</tspan></text>
    <path
       style="fill:none;stroke:#000000;stroke-width:2;stroke-linecap:butt;stroke-linejoin:miter;stroke-miterlimit:4;stroke-opacity:1;stroke-dasharray:none;marker-end:url(#Arrow2Lend)"
       d="m -44.875373,413.40847 c 23.781248,3.54892 30.083206,11.95153 44.20130519,37.70241"
       id="path3791-3-3-9"
       inkscape:connector-curvature="0"
       sodipodi:nodetypes="cc" />
    <text
       sodipodi:linespacing="125%"
       id="text4288-7-65"
       y="407.98938"
       x="23.980349"
       style="font-size:14px;font-style:normal;font-variant:normal;font-weight:normal;font-stretch:normal;text-align:center;line-height:125%;letter-spacing:0px;word-spacing:0px;writing-mode:lr-tb;text-anchor:middle;fill:#000000;fill-opacity:1;stroke:none;font-family:Sans;-inkscape-font-specification:Sans"
       xml:space="preserve"><tspan
         y="407.98938"
         x="23.980349"
         sodipodi:role="line"
         id="tspan3126">sensible signal</tspan><tspan
         y="425.48938"
         x="23.980349"
         sodipodi:role="line"
         id="tspan3031">change</tspan></text>
    <text
       sodipodi:linespacing="125%"
       id="text4288-7-65-9"
       y="572.40973"
       x="-117.90714"
       style="font-size:14px;font-style:normal;font-variant:normal;font-weight:normal;font-stretch:normal;text-align:center;line-height:125%;letter-spacing:0px;word-spacing:0px;writing-mode:lr-tb;text-anchor:middle;fill:#000000;fill-opacity:1;stroke:none;font-family:Sans;-inkscape-font-specification:Sans"
       xml:space="preserve"><tspan
         y="572.40973"
         x="-117.90714"
         id="tspan4290-3-32-42"
         sodipodi:role="line">scheduler</tspan></text>
    <path
       transform="translate(-281.08333,181.17403)"
       sodipodi:type="arc"
       style="color:#000000;fill:none;stroke:#000000;stroke-width:1;stroke-opacity:1;marker:none;visibility:visible;display:inline;overflow:visible;enable-background:accumulate"
       id="path2993-8-1-9"
       sodipodi:cx="280"
       sodipodi:cy="392.36218"
       sodipodi:rx="80"
       sodipodi:ry="30"
       d="m 360,392.36218 c 0,16.56855 -35.81722,30 -80,30 -44.18278,0 -80,-13.43145 -80,-30 0,-16.56854 35.81722,-30 80,-30 44.18278,0 80,13.43146 80,30 z" />
    <text
       xml:space="preserve"
       style="font-size:14px;font-style:normal;font-variant:normal;font-weight:bold;font-stretch:normal;text-align:center;line-height:125%;letter-spacing:0px;word-spacing:0px;writing-mode:lr-tb;text-anchor:middle;fill:#000000;fill-opacity:1;stroke:none;font-family:Sans;-inkscape-font-specification:Sans Bold"
       x="0.1245646"
       y="576.67688"
       id="text3763-1-9-9"
       sodipodi:linespacing="125%"><tspan
         sodipodi:role="line"
         id="tspan3765-7-4-1"
         x="0.1245646"
         y="576.67688">ready</tspan></text>
    <path
       style="fill:none;stroke:#000000;stroke-width:2;stroke-linecap:butt;stroke-linejoin:miter;stroke-miterlimit:4;stroke-opacity:1;stroke-dasharray:none;marker-end:url(#Arrow2Lend)"
       d="m 0,512.36214 0,30"
       id="path3791-3-3-9-3-1"
       inkscape:connector-curvature="0"
       sodipodi:nodetypes="cc" />
    <path
       style="fill:none;stroke:#000000;stroke-width:2;stroke-linecap:butt;stroke-linejoin:miter;stroke-miterlimit:4;stroke-opacity:1;stroke-dasharray:none;marker-end:url(#Arrow2Lend)"
       d="m -70.517774,590.25355 c -27.98257,19.55826 -55.291056,23.75956 -98.818316,-1.29109"
       id="path3791-3-3-9-3-1-6"
       inkscape:connector-curvature="0"
       sodipodi:nodetypes="cc" />
    <path
       style="fill:none;stroke:#000000;stroke-width:2;stroke-linecap:butt;stroke-linejoin:miter;stroke-miterlimit:4;stroke-opacity:1;stroke-dasharray:none;marker-end:url(#Arrow2Lend)"
       d="m -230.07345,451.30955 c 5.79869,-15.60174 10,-20 30,-40"
       id="path3791-3-5"
       inkscape:connector-curvature="0"
       sodipodi:nodetypes="cc" />
    <path
       transform="translate(-521.35996,88.641215)"
       sodipodi:type="arc"
       style="color:#000000;fill:none;stroke:#000000;stroke-width:1;stroke-opacity:1;marker:none;visibility:visible;display:inline;overflow:visible;enable-background:accumulate"
       id="path2993-8-4-7"
       sodipodi:cx="280"
       sodipodi:cy="392.36218"
       sodipodi:rx="80"
       sodipodi:ry="30"
       d="m 360,392.36218 c 0,16.56855 -35.81722,30 -80,30 -44.18278,0 -80,-13.43145 -80,-30 0,-16.56854 35.81722,-30 80,-30 44.18278,0 80,13.43146 80,30 z" />
    <text
       xml:space="preserve"
       style="font-size:14px;font-style:normal;font-variant:normal;font-weight:bold;font-stretch:normal;text-align:center;line-height:125%;letter-spacing:0px;word-spacing:0px;writing-mode:lr-tb;text-anchor:middle;fill:#000000;fill-opacity:1;stroke:none;font-family:Sans;-inkscape-font-specification:Sans Bold"
       x="-240.15208"
       y="484.1442"
       id="text3763-1-90-7"
       sodipodi:linespacing="125%"><tspan
         sodipodi:role="line"
         id="tspan3765-7-7-7"
         x="-240.15208"
         y="484.1442">postactivate</tspan></text>
    <text
       sodipodi:linespacing="125%"
       id="text4288-7-65-9-2"
       y="532.36212"
       x="-190"
       style="font-size:14px;font-style:normal;font-variant:normal;font-weight:normal;font-stretch:normal;text-align:center;line-height:125%;letter-spacing:0px;word-spacing:0px;writing-mode:lr-tb;text-anchor:middle;fill:#000000;fill-opacity:1;stroke:none;font-family:Sans;-inkscape-font-specification:Sans"
       xml:space="preserve"><tspan
         y="532.36212"
         x="-190"
         id="tspan4290-3-32-42-0"
         sodipodi:role="line">scheduler</tspan></text>
    <path
       style="fill:none;stroke:#000000;stroke-width:2;stroke-linecap:butt;stroke-linejoin:miter;stroke-miterlimit:4;stroke-opacity:1;stroke-dasharray:none;marker-end:url(#Arrow2Lend)"
       d="m -240,542.36214 0,-30"
       id="path3791-3-3-9-3-1-67"
       inkscape:connector-curvature="0"
       sodipodi:nodetypes="cc" />
  </g>
</svg>
