<?xml version="1.0" encoding="UTF-8" standalone="no"?>
<!-- Creator: fig2dev Version 3.2 Patchlevel 5d -->

<!-- CreationDate: Sun Feb 26 19:42:15 2012 -->

<!-- Magnification: 1.000 -->

<svg
   xmlns:dc="http://purl.org/dc/elements/1.1/"
   xmlns:cc="http://creativecommons.org/ns#"
   xmlns:rdf="http://www.w3.org/1999/02/22-rdf-syntax-ns#"
   xmlns:svg="http://www.w3.org/2000/svg"
   xmlns="http://www.w3.org/2000/svg"
   xmlns:sodipodi="http://sodipodi.sourceforge.net/DTD/sodipodi-0.dtd"
   xmlns:inkscape="http://www.inkscape.org/namespaces/inkscape"
   width="325.13788"
   height="345.86322"
   viewBox="-1812 765 4269.37 4578.9925"
   id="svg2"
   version="1.1"
   inkscape:version="0.48.2 r9819"
   sodipodi:docname="encodeurPriorite.svg">
  <metadata
     id="metadata128">
    <rdf:RDF>
      <cc:Work
         rdf:about="">
        <dc:format>image/svg+xml</dc:format>
        <dc:type
           rdf:resource="http://purl.org/dc/dcmitype/StillImage" />
      </cc:Work>
    </rdf:RDF>
  </metadata>
  <defs
     id="defs126" />
  <sodipodi:namedview
     pagecolor="#ffffff"
     bordercolor="#666666"
     borderopacity="1"
     objecttolerance="10"
     gridtolerance="10"
     guidetolerance="10"
     inkscape:pageopacity="0"
     inkscape:pageshadow="2"
     inkscape:window-width="850"
     inkscape:window-height="825"
     id="namedview124"
     showgrid="true"
     inkscape:snap-grids="false"
     fit-margin-top="0"
     fit-margin-left="0"
     fit-margin-right="0"
     fit-margin-bottom="0"
     inkscape:zoom="1.3289991"
     inkscape:cx="206.81984"
     inkscape:cy="106.82889"
     inkscape:window-x="0"
     inkscape:window-y="24"
     inkscape:window-maximized="0"
     inkscape:current-layer="svg2">
    <inkscape:grid
       type="xygrid"
       id="grid3203"
       empspacing="5"
       visible="true"
       enabled="true"
       snapvisiblegridlinesonly="true" />
  </sodipodi:namedview>
  <polyline
     id="polyline6"
     style="fill:none;stroke:#000000;stroke-width:7;stroke-linecap:butt;stroke-linejoin:miter"
     points="-1200,900 -1200,1425 -1350,1425 -1350,2205 "
     transform="translate(1069.9994,-59.507494)" />
  <polygon
     id="polygon8"
     style="fill:#000000;stroke:#000000;stroke-width:7;stroke-miterlimit:8"
     points="-1349,2324 -1319,2204 -1379,2204 -1379,2204 "
     transform="translate(1069.9994,-59.507494)" />
  <polyline
     id="polyline10"
     style="fill:none;stroke:#000000;stroke-width:7;stroke-linecap:butt;stroke-linejoin:miter"
     points="-1200,2850 -1200,3075 -1350,3075 -1350,3855 "
     transform="translate(1069.9994,-59.507494)" />
  <polygon
     id="polygon12"
     style="fill:#000000;stroke:#000000;stroke-width:7;stroke-miterlimit:8"
     points="-1349,3974 -1319,3854 -1379,3854 -1379,3854 "
     transform="translate(1069.9994,-59.507494)" />
  <rect
     id="rect14"
     style="fill:#ffffff;stroke:#000000;stroke-width:0;stroke-linecap:butt;stroke-linejoin:miter"
     rx="0"
     height="70"
     width="149"
     y="1856.4926"
     x="-354.00064" />
  <rect
     id="rect16"
     style="fill:#ffffff;stroke:#000000;stroke-width:0;stroke-linecap:butt;stroke-linejoin:miter"
     rx="0"
     height="70"
     width="149"
     y="3506.4924"
     x="-354.00064" />
  <path
     inkscape:connector-curvature="0"
     id="path18"
     d="m 1069.9994,4740.4925 a 300,300 0 0 1 0,600"
     style="fill:none;stroke:#000000;stroke-width:7;stroke-linecap:butt" />
  <polyline
     id="polyline20"
     style="fill:none;stroke:#000000;stroke-width:7;stroke-linecap:butt;stroke-linejoin:miter"
     points="0,4800 -300,4800 -300,5400 0,5400 "
     transform="translate(1069.9994,-59.507494)" />
  <circle
     sodipodi:ry="75"
     sodipodi:rx="75"
     sodipodi:cy="4950"
     sodipodi:cx="-750"
     id="circle22"
     style="fill:none;stroke:#000000;stroke-width:7"
     r="75"
     cy="4950"
     cx="-750"
     transform="translate(1069.9994,-59.507494)" />
  <polyline
     id="polyline24"
     style="fill:none;stroke:#000000;stroke-width:7;stroke-linecap:butt;stroke-linejoin:miter"
     points="-825,4950 -1050,4800 -1050,5100 -825,4950 "
     transform="translate(1069.9994,-59.507494)" />
  <path
     inkscape:connector-curvature="0"
     id="path26"
     d="m 1069.9994,1440.4925 a 300,300 0 0 1 0,600"
     style="fill:none;stroke:#000000;stroke-width:7;stroke-linecap:butt" />
  <polyline
     id="polyline28"
     style="fill:none;stroke:#000000;stroke-width:7;stroke-linecap:butt;stroke-linejoin:miter"
     points="0,1500 -300,1500 -300,2100 0,2100 "
     transform="translate(1069.9994,-59.507494)" />
  <circle
     sodipodi:ry="75"
     sodipodi:rx="75"
     sodipodi:cy="1650"
     sodipodi:cx="-750"
     id="circle30"
     style="fill:none;stroke:#000000;stroke-width:7"
     r="75"
     cy="1650"
     cx="-750"
     transform="translate(1069.9994,-59.507494)" />
  <polyline
     id="polyline32"
     style="fill:none;stroke:#000000;stroke-width:7;stroke-linecap:butt;stroke-linejoin:miter"
     points="-825,1650 -1050,1500 -1050,1800 -825,1650 "
     transform="translate(1069.9994,-59.507494)" />
  <path
     inkscape:connector-curvature="0"
     id="path34"
     d="m 169.99937,2190.4925 a 375,375 0 0 1 -600,0"
     style="fill:none;stroke:#000000;stroke-width:7;stroke-linecap:butt" />
  <polyline
     id="polyline36"
     style="fill:none;stroke:#000000;stroke-width:7;stroke-linecap:butt;stroke-linejoin:bevel"
     points="-900,2250 -900,2252 -900,2257 -900,2265 -900,2277 -901,2293 -902,2312 -903,2334 -905,2358 -907,2383 -910,2409 -914,2436 -920,2465 -927,2494 -935,2525 -946,2557 -959,2591 -975,2625 -995,2661 -1015,2693 -1035,2720 -1055,2743 -1074,2763 -1093,2780 -1112,2795 -1130,2808 -1147,2819 -1162,2829 -1176,2837 -1186,2843 -1194,2847 -1198,2849 -1200,2850 "
     transform="translate(1069.9994,-59.507494)" />
  <polyline
     id="polyline38"
     style="fill:none;stroke:#000000;stroke-width:7;stroke-linecap:butt;stroke-linejoin:bevel"
     points="-1500,2250 -1500,2252 -1500,2257 -1500,2265 -1500,2277 -1499,2293 -1498,2312 -1497,2334 -1495,2358 -1493,2383 -1490,2409 -1486,2436 -1480,2465 -1473,2494 -1465,2525 -1454,2557 -1441,2591 -1425,2625 -1405,2661 -1385,2693 -1365,2720 -1345,2743 -1326,2763 -1307,2780 -1288,2795 -1270,2808 -1253,2819 -1238,2829 -1224,2837 -1214,2843 -1206,2847 -1202,2849 -1200,2850 "
     transform="translate(1069.9994,-59.507494)" />
  <path
     inkscape:connector-curvature="0"
     id="path40"
     d="m 1069.9994,3090.4925 a 300,300 0 0 1 0,600"
     style="fill:none;stroke:#000000;stroke-width:7;stroke-linecap:butt" />
  <polyline
     id="polyline42"
     style="fill:none;stroke:#000000;stroke-width:7;stroke-linecap:butt;stroke-linejoin:miter"
     points="0,3150 -300,3150 -300,3750 0,3750 "
     transform="translate(1069.9994,-59.507494)" />
  <circle
     sodipodi:ry="75"
     sodipodi:rx="75"
     sodipodi:cy="3300"
     sodipodi:cx="-750"
     id="circle44"
     style="fill:none;stroke:#000000;stroke-width:7"
     r="75"
     cy="3300"
     cx="-750"
     transform="translate(1069.9994,-59.507494)" />
  <polyline
     id="polyline46"
     style="fill:none;stroke:#000000;stroke-width:7;stroke-linecap:butt;stroke-linejoin:miter"
     points="-825,3300 -1050,3150 -1050,3450 -825,3300 "
     transform="translate(1069.9994,-59.507494)" />
  <path
     inkscape:connector-curvature="0"
     id="path48"
     d="m 169.99937,3840.4925 a 375,375 0 0 1 -600,0"
     style="fill:none;stroke:#000000;stroke-width:7;stroke-linecap:butt" />
  <polyline
     id="polyline50"
     style="fill:none;stroke:#000000;stroke-width:7;stroke-linecap:butt;stroke-linejoin:bevel"
     points="-900,3900 -900,3902 -900,3907 -900,3915 -900,3927 -901,3943 -902,3962 -903,3984 -905,4008 -907,4033 -910,4059 -914,4086 -920,4115 -927,4144 -935,4175 -946,4207 -959,4241 -975,4275 -995,4311 -1015,4343 -1035,4370 -1055,4393 -1074,4413 -1093,4430 -1112,4445 -1130,4458 -1147,4469 -1162,4479 -1176,4487 -1186,4493 -1194,4497 -1198,4499 -1200,4500 "
     transform="translate(1069.9994,-59.507494)" />
  <polyline
     id="polyline52"
     style="fill:none;stroke:#000000;stroke-width:7;stroke-linecap:butt;stroke-linejoin:bevel"
     points="-1500,3900 -1500,3902 -1500,3907 -1500,3915 -1500,3927 -1499,3943 -1498,3962 -1497,3984 -1495,4008 -1493,4033 -1490,4059 -1486,4086 -1480,4115 -1473,4144 -1465,4175 -1454,4207 -1441,4241 -1425,4275 -1405,4311 -1385,4343 -1365,4370 -1345,4393 -1326,4413 -1307,4430 -1288,4445 -1270,4458 -1253,4469 -1238,4479 -1224,4487 -1214,4493 -1206,4497 -1202,4499 -1200,4500 "
     transform="translate(1069.9994,-59.507494)" />
  <polyline
     id="polyline54"
     style="fill:none;stroke:#000000;stroke-width:7;stroke-linecap:butt;stroke-linejoin:miter"
     points="-1800,5250 -420,5250 "
     transform="translate(1069.9994,-59.507494)" />
  <polygon
     id="polygon56"
     style="fill:#000000;stroke:#000000;stroke-width:7;stroke-miterlimit:8"
     points="-300,5250 -420,5220 -420,5280 -420,5280 "
     transform="translate(1069.9994,-59.507494)" />
  <polyline
     id="polyline58"
     style="fill:none;stroke:#000000;stroke-width:7;stroke-linecap:butt;stroke-linejoin:miter"
     points="300,5100 780,5100 "
     transform="translate(1069.9994,-59.507494)" />
  <polygon
     id="polygon60"
     style="fill:#000000;stroke:#000000;stroke-width:7;stroke-miterlimit:8"
     points="899,5100 779,5070 779,5130 779,5130 "
     transform="translate(1069.9994,-59.507494)" />
  <polyline
     id="polyline62"
     style="fill:none;stroke:#000000;stroke-width:7;stroke-linecap:butt;stroke-linejoin:miter"
     points="-1350,4950 -1170,4950 "
     transform="translate(1069.9994,-59.507494)" />
  <polygon
     id="polygon64"
     style="fill:#000000;stroke:#000000;stroke-width:7;stroke-miterlimit:8"
     points="-1050,4950 -1170,4920 -1170,4980 -1170,4980 "
     transform="translate(1069.9994,-59.507494)" />
  <polyline
     id="polyline66"
     style="fill:none;stroke:#000000;stroke-width:7;stroke-linecap:butt;stroke-linejoin:miter"
     points="-675,4950 -420,4950 "
     transform="translate(1069.9994,-59.507494)" />
  <polygon
     id="polygon68"
     style="fill:#000000;stroke:#000000;stroke-width:7;stroke-miterlimit:8"
     points="-300,4950 -420,4920 -420,4980 -420,4980 "
     transform="translate(1069.9994,-59.507494)" />
  <polyline
     id="polyline70"
     style="fill:none;stroke:#000000;stroke-width:7;stroke-linecap:butt;stroke-linejoin:miter"
     points="-1200,4500 -1200,4725 -1350,4725 -1350,4950 "
     transform="translate(1069.9994,-59.507494)" />
  <polyline
     id="polyline72"
     style="fill:none;stroke:#000000;stroke-width:7;stroke-linecap:butt;stroke-linejoin:miter"
     points="-1800,900 780,900 "
     transform="translate(1069.9994,-59.507494)" />
  <polygon
     id="polygon74"
     style="fill:#000000;stroke:#000000;stroke-width:7;stroke-miterlimit:8"
     points="899,900 779,870 779,930 779,930 "
     transform="translate(1069.9994,-59.507494)" />
  <polyline
     id="polyline76"
     style="fill:none;stroke:#000000;stroke-width:7;stroke-linecap:butt;stroke-linejoin:miter"
     points="-1800,1950 -420,1950 "
     transform="translate(1069.9994,-59.507494)" />
  <polygon
     id="polygon78"
     style="fill:#000000;stroke:#000000;stroke-width:7;stroke-miterlimit:8"
     points="-300,1950 -420,1920 -420,1980 -420,1980 "
     transform="translate(1069.9994,-59.507494)" />
  <polyline
     id="polyline80"
     style="fill:none;stroke:#000000;stroke-width:7;stroke-linecap:butt;stroke-linejoin:miter"
     points="300,1800 780,1800 "
     transform="translate(1069.9994,-59.507494)" />
  <polygon
     id="polygon82"
     style="fill:#000000;stroke:#000000;stroke-width:7;stroke-miterlimit:8"
     points="899,1800 779,1770 779,1830 779,1830 "
     transform="translate(1069.9994,-59.507494)" />
  <polyline
     id="polyline84"
     style="fill:none;stroke:#000000;stroke-width:7;stroke-linecap:butt;stroke-linejoin:miter"
     points="-1050,1950 -1050,2205 "
     transform="translate(1069.9994,-59.507494)" />
  <polygon
     id="polygon86"
     style="fill:#000000;stroke:#000000;stroke-width:7;stroke-miterlimit:8"
     points="-1049,2324 -1019,2204 -1079,2204 -1079,2204 "
     transform="translate(1069.9994,-59.507494)" />
  <polyline
     id="polyline88"
     style="fill:none;stroke:#000000;stroke-width:7;stroke-linecap:butt;stroke-linejoin:miter"
     points="-1350,1650 -1170,1650 "
     transform="translate(1069.9994,-59.507494)" />
  <polygon
     id="polygon90"
     style="fill:#000000;stroke:#000000;stroke-width:7;stroke-miterlimit:8"
     points="-1050,1650 -1170,1620 -1170,1680 -1170,1680 "
     transform="translate(1069.9994,-59.507494)" />
  <polyline
     id="polyline92"
     style="fill:none;stroke:#000000;stroke-width:7;stroke-linecap:butt;stroke-linejoin:miter"
     points="-675,1650 -420,1650 "
     transform="translate(1069.9994,-59.507494)" />
  <polygon
     id="polygon94"
     style="fill:#000000;stroke:#000000;stroke-width:7;stroke-miterlimit:8"
     points="-300,1650 -420,1620 -420,1680 -420,1680 "
     transform="translate(1069.9994,-59.507494)" />
  <polyline
     id="polyline96"
     style="fill:none;stroke:#000000;stroke-width:7;stroke-linecap:butt;stroke-linejoin:miter"
     points="-1800,3600 -420,3600 "
     transform="translate(1069.9994,-59.507494)" />
  <polygon
     id="polygon98"
     style="fill:#000000;stroke:#000000;stroke-width:7;stroke-miterlimit:8"
     points="-300,3600 -420,3570 -420,3630 -420,3630 "
     transform="translate(1069.9994,-59.507494)" />
  <polyline
     id="polyline100"
     style="fill:none;stroke:#000000;stroke-width:7;stroke-linecap:butt;stroke-linejoin:miter"
     points="300,3450 780,3450 "
     transform="translate(1069.9994,-59.507494)" />
  <polygon
     id="polygon102"
     style="fill:#000000;stroke:#000000;stroke-width:7;stroke-miterlimit:8"
     points="899,3450 779,3420 779,3480 779,3480 "
     transform="translate(1069.9994,-59.507494)" />
  <polyline
     id="polyline104"
     style="fill:none;stroke:#000000;stroke-width:7;stroke-linecap:butt;stroke-linejoin:miter"
     points="-1050,3600 -1050,3855 "
     transform="translate(1069.9994,-59.507494)" />
  <polygon
     id="polygon106"
     style="fill:#000000;stroke:#000000;stroke-width:7;stroke-miterlimit:8"
     points="-1049,3974 -1019,3854 -1079,3854 -1079,3854 "
     transform="translate(1069.9994,-59.507494)" />
  <polyline
     id="polyline108"
     style="fill:none;stroke:#000000;stroke-width:7;stroke-linecap:butt;stroke-linejoin:miter"
     points="-1350,3300 -1170,3300 "
     transform="translate(1069.9994,-59.507494)" />
  <polygon
     id="polygon110"
     style="fill:#000000;stroke:#000000;stroke-width:7;stroke-miterlimit:8"
     points="-1050,3300 -1170,3270 -1170,3330 -1170,3330 "
     transform="translate(1069.9994,-59.507494)" />
  <polyline
     id="polyline112"
     style="fill:none;stroke:#000000;stroke-width:7;stroke-linecap:butt;stroke-linejoin:miter"
     points="-675,3300 -420,3300 "
     transform="translate(1069.9994,-59.507494)" />
  <polygon
     id="polygon114"
     style="fill:#000000;stroke:#000000;stroke-width:7;stroke-miterlimit:8"
     points="-300,3300 -420,3270 -420,3330 -420,3330 "
     transform="translate(1069.9994,-59.507494)" />
  <text
     style="font-size:192px;font-style:normal;font-weight:normal;text-anchor:middle;fill:#000000;stroke-width:0.025in;font-family:Times"
     id="text116"
     font-size="192"
     font-weight="normal"
     font-style="normal"
     y="5115.4927"
     x="2344.9993"
     xml:space="preserve">IT4</text>
  <text
     style="font-size:192px;font-style:normal;font-weight:normal;text-anchor:middle;fill:#000000;stroke-width:0.025in;font-family:Times"
     id="text118"
     font-size="192"
     font-weight="normal"
     font-style="normal"
     y="3465.4924"
     x="2344.9993"
     xml:space="preserve">IT3</text>
  <text
     style="font-size:192px;font-style:normal;font-weight:normal;text-anchor:middle;fill:#000000;stroke-width:0.025in;font-family:Times"
     id="text120"
     font-size="192"
     font-weight="normal"
     font-style="normal"
     y="1815.4926"
     x="2344.9993"
     xml:space="preserve">IT2</text>
  <text
     style="font-size:192px;font-style:normal;font-weight:normal;text-anchor:middle;fill:#000000;stroke-width:0.025in;font-family:Times"
     id="text122"
     font-size="192"
     font-weight="normal"
     font-style="normal"
     y="915.49249"
     x="2344.9993"
     xml:space="preserve">IT1</text>
  <text
     style="font-size:192px;font-style:normal;font-weight:normal;text-align:end;text-anchor:end;fill:#000000;stroke-width:0.025in;font-family:Times"
     id="text116-9"
     font-size="192"
     font-weight="normal"
     font-style="normal"
     y="5255.0063"
     x="-789.99988"
     xml:space="preserve">Demand_IT4</text>
  <text
     style="font-size:192px;font-style:normal;font-weight:normal;text-align:end;text-anchor:end;fill:#000000;stroke-width:0.025in;font-family:Times"
     id="text118-6"
     font-size="192"
     font-weight="normal"
     font-style="normal"
     y="3605.0068"
     x="-797.67993"
     xml:space="preserve">Demand_IT3</text>
  <text
     style="font-size:192px;font-style:normal;font-weight:normal;text-align:end;text-anchor:end;fill:#000000;stroke-width:0.025in;font-family:Times"
     id="text120-2"
     font-size="192"
     font-weight="normal"
     font-style="normal"
     y="1955.0078"
     x="-794.65601"
     xml:space="preserve">Demand_IT2</text>
  <text
     style="font-size:192px;font-style:normal;font-weight:normal;text-align:end;text-anchor:end;fill:#000000;stroke-width:0.025in;font-family:Times"
     id="text122-1"
     font-size="192"
     font-weight="normal"
     font-style="normal"
     y="896.13599"
     x="-804.97583"
     xml:space="preserve">Demand_IT1</text>
</svg>
